<svg width="83" height="77" viewBox="0 0 83 77" fill="none" xmlns="http://www.w3.org/2000/svg">
<path d="M36.4797 0.0715246C36.1266 0.1184 35.4047 0.205899 34.8704 0.265275C32.5641 0.540275 29.3891 1.4184 26.7829 2.51215C24.5954 3.4184 21.6266 5.1684 19.8297 6.5934C17.3485 8.57465 14.2516 11.7997 13.3829 13.3121C13.2266 13.5746 12.8579 14.1621 12.5547 14.6215C11.811 15.7434 11.4797 16.3309 10.5704 18.0871C9.89849 19.3871 9.18287 21.1434 8.71412 22.6309C8.13912 24.4746 8.07037 24.7778 8.01412 25.4496C7.89537 26.809 7.99537 26.6715 6.86099 26.9653C4.92662 27.4528 3.99849 27.7184 3.42349 27.9121C1.97662 28.4309 0.845368 29.5746 0.229743 31.1434C-0.0733815 31.8965 -0.0733811 33.7715 0.210993 34.5528C0.739118 35.959 2.08599 37.2872 3.17974 37.4622L3.52037 37.5215V50.5778L3.22662 50.7247C2.71099 50.9996 2.20162 51.4497 1.96724 51.8559C1.40162 52.834 1.26412 54.8465 1.69537 55.8309C2.27974 57.1997 3.59849 57.7747 5.22037 57.3465C5.56099 57.259 5.85474 57.209 5.87349 57.2309C5.91412 57.2684 5.38599 57.5122 5.00474 57.6309C4.90787 57.659 4.85787 57.7278 4.88912 57.7872C4.91724 57.834 4.87037 57.8747 4.77037 57.8622C4.67349 57.8622 4.46724 57.8622 4.30162 57.8747C4.02037 57.9028 4.02037 57.9028 4.25162 57.9715C4.42974 58.0184 4.30162 58.0684 3.72662 58.1559C3.30787 58.2247 2.90474 58.234 2.84537 58.1965C2.78912 58.1465 2.56412 58.059 2.34849 57.9997C2.13287 57.9309 1.81099 57.7559 1.62662 57.5903C1.24537 57.2497 1.17662 57.2309 1.31412 57.4809C1.62662 58.0497 2.88599 58.7809 3.89224 58.9684C4.45787 59.0747 4.69224 59.0653 5.88287 58.8684C6.62662 58.7434 7.65162 58.5372 8.15787 58.3997C8.66724 58.2747 9.59537 58.0309 10.211 57.8747C11.5485 57.5434 12.7704 56.9653 13.3266 56.409C13.7829 55.9497 13.9891 55.3747 14.0766 54.3184C14.1079 53.9497 14.1547 53.5465 14.1641 53.4403C14.1829 53.3309 14.2047 53.0872 14.2047 52.9028C14.2235 52.1497 14.3204 52.1997 15.6016 53.4997C17.6891 55.6372 20.7172 57.8153 23.5391 59.2309C26.3141 60.6184 28.3641 61.359 30.9922 61.9372C33.3735 62.4528 34.4204 62.5809 36.5766 62.6372C42.9454 62.8059 48.8329 61.2247 53.6204 58.0684C54.2641 57.6372 54.8016 57.3372 54.8204 57.3872C54.8891 57.5997 55.8547 58.2747 56.0797 58.2747C56.2141 58.2747 56.4391 58.3715 56.5891 58.4997C56.7922 58.6747 56.8516 58.8122 56.8704 59.1997C56.9079 59.8872 56.9766 60.2184 57.2141 60.6684C57.4266 61.1153 58.7954 62.4809 61.6766 65.1684C62.7766 66.1934 63.8704 67.2497 64.1079 67.5122C64.3516 67.7747 65.561 69.0372 66.7922 70.3153C68.0329 71.5934 69.0672 72.6872 69.0891 72.7465C69.1079 72.7934 69.0079 72.7747 68.8829 72.6872C68.7454 72.5997 68.6079 72.5621 68.5579 72.5997C68.5204 72.6497 68.5204 72.6184 68.5579 72.5434C68.6204 72.434 68.5985 72.4153 68.4829 72.4622C68.3954 72.4934 68.3141 72.4747 68.286 72.4059C68.2672 72.3372 68.0829 72.2872 67.8672 72.2778C67.5829 72.2778 67.4954 72.2372 67.5141 72.1309C67.5329 72.0621 67.5141 72.0247 67.4766 72.0622C67.436 72.1028 67.3079 72.0247 67.1829 71.8965C67.0579 71.7622 66.9079 71.6528 66.8516 71.6528C66.8016 71.6528 66.7516 71.6122 66.7516 71.5653C66.7516 71.4684 66.1672 70.8434 66.1672 70.9497C66.1672 70.9872 66.1266 70.9497 66.0797 70.8809C65.9422 70.6684 63.5016 68.234 60.5516 65.3622C57.3391 62.2497 56.6172 61.5747 56.8204 61.8872C56.9079 62.0247 58.1297 63.234 59.5454 64.5934C60.9641 65.9403 63.7141 68.7122 65.6797 70.734C70.5829 75.8247 70.3454 75.5872 70.9829 75.8903C72.5641 76.634 74.5454 76.7403 76.2829 76.1747C77.3704 75.8121 78.3829 75.159 79.0891 74.3559C79.7329 73.6372 79.9266 73.3121 79.9579 72.9903C79.9641 72.8434 80.0141 72.7278 80.0547 72.7278C80.0922 72.7278 80.1329 72.659 80.1329 72.5809C80.1329 72.5028 80.0922 72.434 80.0454 72.434C79.9954 72.434 79.936 72.2965 79.8985 72.1309C79.8485 71.8559 79.8204 71.8372 79.6735 71.9559C79.586 72.034 79.536 72.0434 79.5641 71.9934C79.7704 71.634 80.1516 70.6965 80.2297 70.3559C80.3766 69.7309 80.3454 68.5184 80.1829 68.0184C79.9579 67.3872 79.2047 66.4965 78.4704 66.0184C78.1204 65.784 77.5047 65.2559 77.1047 64.8465C76.6954 64.4247 75.2485 63.0309 73.8922 61.7403C71.4985 59.4747 68.8047 56.7903 67.0079 54.8559C65.3579 53.0872 65.2297 53.0122 63.8329 52.9122L62.9266 52.8559L62.7391 52.3653C62.6204 52.0528 62.3204 51.6121 61.9079 51.1653L61.2641 50.4622H61.5579C61.7235 50.4622 61.8704 50.5184 61.9016 50.5778C61.9204 50.6465 61.9766 50.6747 62.0172 50.6371C62.0579 50.5997 62.036 50.4996 61.9766 50.4215C61.8329 50.2465 61.9391 50.0121 62.4766 49.3778C62.6829 49.134 62.8454 48.909 62.8454 48.8809C62.8454 48.8403 63.111 48.4122 63.4422 47.9122C63.7641 47.4247 64.1172 46.8372 64.2141 46.6121C64.3016 46.3997 64.6329 45.6965 64.936 45.0715C65.2391 44.4465 65.4829 43.8809 65.4829 43.8309C65.4829 43.7715 65.5329 43.7247 65.5829 43.7247C65.6391 43.7247 65.6797 43.6434 65.6797 43.5465C65.6797 43.4496 65.7172 43.3309 65.7672 43.284C65.9922 43.0184 67.1829 39.3372 67.3891 38.2559C67.6016 37.1121 67.7579 36.5934 67.8766 36.5934C67.9454 36.5934 68.0235 36.6434 68.0422 36.6934C68.0704 36.7996 70.1141 36.1653 74.4204 34.709C75.9235 34.1996 77.5047 33.684 77.9329 33.5746C79.2141 33.2247 80.6704 32.4622 81.3516 31.7684C81.6766 31.4371 82.0172 31.0184 82.1141 30.8309L82.3016 30.4903L82.0079 30.8309C81.8391 31.0184 81.6766 31.1434 81.636 31.0965C81.5954 31.0559 81.4797 31.0965 81.3829 31.1934C81.1204 31.4278 81.1672 31.2934 81.5079 30.8715C82.1735 30.0434 82.5047 29.0059 82.6704 27.3371C82.7579 26.409 82.7766 25.2278 82.7016 25.7746C82.6422 26.1371 82.5329 26.1153 82.2891 25.7059C82.0954 25.3621 81.8516 25.2559 81.7641 25.4809C81.7454 25.5497 81.6829 25.4434 81.6454 25.2465C81.6079 25.0434 81.5954 24.8184 81.6266 24.7496C81.6547 24.6684 81.6454 24.1715 81.5954 23.6371C81.5079 22.4934 81.3047 21.9653 80.7172 21.3215C80.2891 20.8621 79.2829 20.2871 78.9016 20.2871C78.4704 20.2871 78.3954 20.1996 78.4704 19.8371C78.5704 19.4184 78.8235 19.0153 78.9985 19.0153C79.0891 19.0153 79.2141 18.7434 79.3516 18.3028C79.4579 17.9215 79.6641 17.3747 79.7891 17.1122C79.9172 16.8371 80.2485 16.1153 80.5329 15.4996C80.8079 14.8871 81.2454 13.9559 81.5079 13.4403C81.9672 12.5121 82.3391 11.3871 82.2422 11.1747C82.2204 11.1059 82.1922 11.1653 82.1922 11.2997L82.1829 11.5372L82.0266 11.3215C81.9485 11.2028 81.811 11.1059 81.7329 11.1059C81.6547 11.1059 81.5954 11.0684 81.5954 11.009C81.5954 10.959 81.5391 10.9184 81.4797 10.9403C81.3829 10.9496 81.3329 10.6371 81.2954 9.73715C81.1954 7.74653 80.7766 6.56528 79.9579 5.98715C79.4016 5.58715 79.0204 5.46215 78.4235 5.44965C77.7766 5.4434 77.2797 5.57778 74.5266 6.5059C73.2391 6.93715 71.3922 7.52152 70.4266 7.7934C69.4485 8.0684 68.4422 8.41215 68.1797 8.53715C67.5735 8.84028 66.8391 9.57465 66.5204 10.1872C66.1204 10.9684 66.1672 10.9497 65.5235 10.6465C64.4891 10.1778 62.6704 10.2278 61.2641 10.7621C61.1485 10.8122 61.0204 10.6965 60.786 10.3622C59.8297 8.9684 56.7829 6.27152 54.3704 4.6809C51.5954 2.8434 49.136 1.7809 45.5141 0.852775C43.7829 0.412149 43.1516 0.3059 40.9704 0.0808996C39.9079 -0.02535 37.3079 -0.0253498 36.4797 0.0715246ZM40.6891 1.63402C43.7641 1.87778 46.8516 2.65902 49.8391 3.9684C52.7297 5.23715 55.6704 7.33715 58.0235 9.82465C58.4422 10.2746 58.8704 10.7621 58.9704 10.9184C59.1454 11.1934 59.1454 11.2028 58.9704 11.2028C58.8329 11.2028 58.8235 11.2247 58.9329 11.2934C59.0766 11.3871 58.2579 11.6528 56.7641 11.9934L55.8079 12.2184L54.9954 11.3871C53.4704 9.83715 50.8735 8.05902 48.2766 6.80902C47.0579 6.22465 44.8891 5.54965 42.8954 5.1309C41.4391 4.8184 41.3641 4.8184 38.7266 4.8059C35.5516 4.8059 34.7422 4.9059 32.1141 5.63715C30.0641 6.20278 29.0579 6.57465 27.3891 7.36527C24.3516 8.81215 21.3047 11.2121 18.9204 14.0559C17.4766 15.7746 15.9829 18.1059 15.0047 20.1496C14.3516 21.5059 13.5516 23.6371 13.4329 24.3184C13.3641 24.6809 13.2766 25.0028 13.2266 25.0309C13.1797 25.0621 12.4454 25.3059 11.6079 25.5684C10.7579 25.8309 9.98599 26.0871 9.87662 26.1153C9.71412 26.1653 9.70162 26.1371 9.77037 25.7434C10.0454 23.9965 10.6891 21.9184 11.6454 19.6996C13.0422 16.4871 15.4954 12.7934 17.8672 10.334C19.536 8.6059 22.8172 6.1434 24.9766 5.01215C28.4329 3.18715 32.8766 1.8684 36.4797 1.6059C37.4954 1.52465 39.4579 1.5434 40.6891 1.63402ZM78.8047 7.37465C78.9391 7.5309 78.9516 7.63715 78.8641 8.08715C78.8047 8.3809 78.7641 9.1434 78.7766 9.78715C78.7954 11.0965 78.911 10.6965 77.3985 14.5746C77.086 15.3746 76.7829 16.2121 76.7141 16.4278C76.6454 16.6434 76.3641 17.3871 76.0797 18.0871C75.7954 18.7809 75.386 19.8934 75.161 20.559C74.9454 21.2246 74.5079 22.434 74.1954 23.2434C73.8829 24.0653 73.4516 25.1871 73.2454 25.7559C73.0422 26.3215 72.8172 26.8684 72.7485 26.984C72.6422 27.1684 72.7391 27.1621 74.0079 26.7903C75.9641 26.2246 76.0985 26.1371 76.5485 25.2559C76.7516 24.8559 77.036 24.1121 77.1829 23.6059C77.4172 22.7934 77.4954 22.659 77.7704 22.5028C78.2672 22.209 78.7454 22.2371 79.0204 22.5809C79.3329 22.9715 79.3891 23.5371 79.3891 26.2621C79.4016 28.4403 79.3891 28.5871 79.2141 28.7528C79.0579 28.8997 79.0391 28.8997 79.1454 28.7621C79.2329 28.6434 79.2516 28.3028 79.2141 27.5121C79.1829 26.9184 79.136 26.3871 79.1079 26.3403C79.0766 26.2809 78.961 26.2434 78.8516 26.2434C78.6766 26.2434 78.6672 26.3215 78.6672 27.2496C78.6672 28.0871 78.6391 28.2934 78.5016 28.4121C78.4016 28.4997 77.6891 28.7246 76.9079 28.9278C76.1266 29.1246 75.211 29.3871 74.8579 29.5059C74.5079 29.6309 73.7141 29.8653 73.1016 30.0309C72.486 30.1996 71.6954 30.4215 71.3422 30.5403C70.6204 30.7747 69.4485 31.0278 69.1266 31.0278C68.9985 31.0278 68.9016 31.0684 68.9016 31.1059C68.9016 31.2621 69.3391 31.6059 69.6329 31.6715C69.8016 31.7121 69.9641 31.7621 70.0141 31.7903C70.1016 31.8371 69.6735 32.0434 69.1454 32.1903L68.8141 32.2778L68.9704 32.0434C69.1172 31.8184 69.1172 31.7903 68.9391 31.6621C68.8422 31.584 68.686 31.5434 68.6079 31.584C68.1891 31.7621 65.9422 32.2778 65.8079 32.2309C65.6797 32.1809 65.6579 32.209 65.7079 32.3372C65.7454 32.434 65.7766 32.5903 65.7766 32.6871C65.7766 32.7872 65.8547 32.8934 65.9516 32.9122C66.0391 32.9434 65.9329 32.9622 65.7079 32.9715C65.0829 32.9903 64.8704 32.6778 63.7954 30.2465C63.0329 28.5184 61.8797 25.5309 61.7641 24.9621C61.6641 24.5121 61.5579 24.3778 61.4391 24.5746C61.3829 24.6684 61.3704 24.8246 61.3704 26.3871C61.3704 27.034 61.3516 28.509 61.3329 29.6621C61.3047 31.0559 61.3235 31.809 61.3922 31.9059C61.4797 32.0247 61.4891 32.0247 61.4391 31.8778C61.411 31.7809 61.4516 31.5434 61.5266 31.3496C61.6079 31.1653 61.6829 30.6684 61.6829 30.2559L61.7047 29.5121L61.7735 30.0996C61.811 30.4215 61.8516 31.0278 61.861 31.4371L61.8704 32.1996L62.3485 32.7278C62.9547 33.3997 63.0422 33.6434 62.7485 33.8809C62.6329 33.9778 62.4641 34.0559 62.3766 34.0559C62.2516 34.0559 62.2516 34.0371 62.4079 33.9278C62.6141 33.7715 62.5329 33.5872 62.2329 33.4809C62.086 33.4184 61.6954 33.509 60.9922 33.7309C58.7454 34.4653 57.661 34.8746 57.4579 35.0434C57.3016 35.1778 57.2204 35.1996 57.1141 35.1184C56.8797 34.9246 56.9766 34.5528 57.4954 33.7434C58.4422 32.2309 58.3547 33.2153 58.3547 24.0746C58.3547 18.9871 58.3141 15.9121 58.2579 15.7434C58.2079 15.6059 57.8766 15.2184 57.5266 14.8653C56.636 13.9965 56.6766 13.8496 57.8672 13.5465C58.111 13.4809 58.9204 13.234 59.6735 12.9903C62.4172 12.1121 63.5891 11.9372 64.6516 12.2184C65.8266 12.5215 66.4891 13.0778 67.0579 14.1996L67.486 15.0434L67.5047 16.7621C67.5329 18.7934 67.4172 20.3434 67.1922 21.0184C67.0079 21.5559 66.3829 22.5996 66.1954 22.6684C66.1266 22.6996 66.2266 22.5121 66.4016 22.2496C66.9485 21.4778 67.086 21.1434 67.0954 20.5497C67.1047 20.2465 67.086 19.9934 67.0579 19.9934C67.0266 20.0028 66.8204 20.3746 66.6079 20.8309C66.2141 21.6528 65.5016 22.4934 64.7797 22.9621C64.5579 23.1059 64.5079 23.2059 64.5079 23.5465L64.5172 23.9496L64.6516 23.6246C64.7422 23.4184 64.8579 23.3121 64.9954 23.3121C65.1016 23.3121 65.211 23.3246 65.2204 23.3309C65.2391 23.3528 65.3266 23.3028 65.4141 23.2246C65.5141 23.1465 65.5829 23.1371 65.5829 23.1965C65.5829 23.2559 65.4954 23.3309 65.386 23.3622C65.2297 23.4121 65.2016 23.4809 65.2485 23.684C65.2766 23.8309 65.3266 24.0559 65.3454 24.1934C65.4454 24.6684 66.5891 27.7653 66.9485 28.5559C67.4766 29.6809 68.0704 30.5309 68.3547 30.5403C68.3954 30.5403 68.4016 30.4621 68.3641 30.3622C68.0016 29.5121 68.1297 28.7028 69.0079 26.3215C69.3891 25.2871 69.9454 23.7715 70.2391 22.9715C70.5329 22.1621 70.9704 20.9809 71.2141 20.334C71.461 19.6903 71.811 18.7434 72.0079 18.234C72.1922 17.7278 72.5141 16.8684 72.711 16.3309C72.9141 15.7934 73.2391 14.934 73.4235 14.4246C73.6079 13.9184 73.9016 13.1559 74.0672 12.7372C74.4079 11.8871 74.4204 11.8184 74.2516 11.9559C74.1079 12.0747 73.0235 12.4247 72.5141 12.5309C72.0641 12.6184 71.4797 12.9215 71.3422 13.1278C71.236 13.2934 71.236 13.2934 71.2829 13.1184C71.3235 13.0121 71.2829 12.8934 71.186 12.8246C71.0391 12.7184 71.0391 12.6872 71.186 12.5434C71.2766 12.4528 71.3047 12.3653 71.2547 12.3246C71.0204 12.1903 70.5329 13.1559 70.4141 13.9871C70.3766 14.1996 70.2891 14.6496 70.211 14.9934C70.1329 15.334 70.0735 15.7153 70.0735 15.8434C70.0735 15.9809 69.9641 16.1559 69.8079 16.2809C69.6329 16.4184 69.5766 16.5059 69.6516 16.5371C69.7204 16.5653 69.8766 16.6715 69.9954 16.7621L70.2016 16.9371L69.9454 16.984C69.6329 17.0434 69.0391 16.7903 68.6954 16.4496C68.4016 16.1559 68.3735 15.8309 68.2579 12.3653L68.1891 10.4434L68.4704 10.2934C68.6266 10.2184 69.2829 9.9934 69.9266 9.79653C70.5704 9.60278 71.6266 9.2684 72.2704 9.06528C72.9141 8.84965 74.1641 8.45902 75.0547 8.17465C75.9422 7.90277 76.9766 7.57152 77.3485 7.4434C78.1985 7.16215 78.5891 7.14027 78.8047 7.37465ZM40.7266 8.37152C43.3641 8.67465 47.1329 9.86527 48.736 10.8996C48.9016 11.009 49.0891 11.0965 49.1547 11.0965C49.2735 11.1059 50.4141 11.8371 50.5422 11.9934C50.6985 12.1684 51.6641 12.7653 51.8016 12.7653C51.9485 12.7653 52.4641 13.3246 52.3766 13.3903C52.3704 13.4121 51.5204 13.6934 50.4954 14.0246C46.8704 15.2059 46.9485 15.1778 46.3141 15.8309L45.7454 16.4184L45.0641 16.2997C44.6922 16.2309 44.1641 16.184 43.9016 16.184C43.2079 16.184 41.2454 16.6934 38.1891 17.6496C37.711 17.8059 36.9579 18.0184 36.5266 18.1371C35.3266 18.4496 30.6204 19.9934 30.1829 20.2184C29.9641 20.3246 29.6516 20.5121 29.4891 20.6371C29.2329 20.8309 29.1172 20.8622 28.7079 20.8121C28.1891 20.7434 27.2422 20.959 25.2485 21.6059C24.6829 21.7809 23.6266 22.1122 22.9047 22.3371C19.8485 23.2621 19.3016 23.4403 18.4704 23.7121C17.6516 23.9778 17.5829 23.9871 17.4172 23.8309C17.3204 23.7434 17.2422 23.5559 17.2422 23.4184C17.2422 23.234 17.2704 23.2059 17.3297 23.3028C17.4079 23.4184 17.486 23.3903 17.7579 23.1559C17.9547 22.9996 18.111 22.8246 18.111 22.7746C18.1204 22.5996 18.9891 20.5684 19.3016 19.9528C20.5235 17.609 22.8079 14.8059 24.8079 13.1965C25.1329 12.9434 25.4141 12.6996 25.4266 12.6496C25.4454 12.609 25.5141 12.5715 25.5829 12.5715C25.6516 12.5715 25.786 12.4809 25.8829 12.3747C25.9829 12.2684 26.3329 12.0247 26.6547 11.8278C26.9891 11.6434 27.5329 11.3122 27.8766 11.1059C28.2266 10.8903 29.0391 10.4997 29.6829 10.2278C30.3391 9.95278 31.0016 9.66215 31.1579 9.5934C31.9579 9.2309 34.6454 8.62465 36.5766 8.3809C37.4954 8.26215 39.7141 8.26215 40.7266 8.37152ZM71.1579 13.6153C71.0391 13.8121 71.0204 13.7528 71.1079 13.4996C71.1485 13.4121 71.1954 13.3621 71.2141 13.3903C71.2454 13.4121 71.2141 13.5184 71.1579 13.6153ZM56.5766 14.1121C56.7829 14.2809 56.8391 14.4653 56.7829 14.8184C56.7641 14.8934 56.7829 15.2059 56.8204 15.4996C56.8516 15.7934 56.9016 16.8278 56.9297 17.7934C56.9766 19.6684 56.9079 20.0121 56.5079 20.1184C56.2547 20.1871 55.5016 19.3871 55.0829 18.5965L54.7797 18.0497L54.4954 18.1965C54.2047 18.3528 53.3454 18.6371 52.6422 18.8121L52.2516 18.909L52.2204 21.359C52.1829 24.1121 52.1141 23.9184 53.0141 23.6246C53.8047 23.3621 53.9985 23.1965 54.4391 22.4528C54.6516 22.0809 54.8985 21.7309 54.9766 21.6621C55.1704 21.4965 55.5829 21.5934 55.7079 21.8278C55.7579 21.9184 55.8079 23.2434 55.8266 24.7778L55.8641 27.5621L55.6204 27.5996C55.4266 27.6184 55.2766 27.5215 54.8891 27.0809C54.3204 26.4559 54.4672 26.4684 53.0516 27.0059C52.6891 27.1403 52.3766 27.2309 52.3485 27.1996C52.2516 27.1121 52.4172 26.8278 52.5547 26.8278C52.7391 26.8278 53.7547 26.3121 53.7641 26.2121C53.7641 26.1059 53.5579 26.1246 52.9735 26.2997C52.0641 26.5746 51.7141 26.7997 51.7141 27.1028C51.7141 27.2778 51.7454 27.3246 51.7922 27.2372C51.8391 27.1684 51.9485 27.1403 52.036 27.1809C52.1829 27.2371 52.2016 27.5028 52.1922 29.9934C52.1829 31.4965 52.1516 32.6371 52.1329 32.5309C52.0954 32.3246 51.7141 32.1215 51.7141 32.3059C51.7141 32.3559 51.7641 32.3934 51.8204 32.3934C51.9016 32.3934 51.8891 32.4434 51.811 32.5434C51.7454 32.6309 51.6547 32.8621 51.6172 33.0778L51.5485 33.4809L51.8016 33.3028C51.9391 33.2059 52.5829 32.9496 53.2266 32.7371C54.586 32.2872 54.6141 32.259 55.1891 30.7746C55.6985 29.4653 56.1672 29.1528 56.7454 29.759L57.0172 30.0434L56.9391 31.9746C56.8891 33.0403 56.8516 34.2684 56.8391 34.709C56.8391 35.159 56.7922 35.559 56.7329 35.6184C56.6766 35.6746 56.3047 35.784 55.9016 35.8715C55.5016 35.9496 54.9641 36.0872 54.7016 36.1559C54.4391 36.2309 54.2047 36.2809 54.1829 36.2621C54.1454 36.2247 55.1204 35.8621 55.6704 35.7153C56.3047 35.5496 56.3641 35.4903 56.2266 35.0997C56.1579 34.9246 56.0985 34.6684 56.0891 34.534C56.0891 34.4059 56.0516 34.4934 56.0204 34.7371L55.9641 35.1778L54.8391 35.4309C52.7297 35.9121 49.311 37.0528 48.6672 37.4934C48.4704 37.6309 48.3954 37.6371 48.3547 37.5496C48.3266 37.4622 48.2672 37.4809 48.1579 37.609C48.0704 37.7184 48.0016 37.8559 48.0016 37.9028C48.0016 37.9622 48.0516 37.9434 48.1016 37.8621C48.1797 37.7371 48.1985 37.7371 48.1985 37.8746C48.1985 38.1965 47.4641 38.2747 47.3704 37.9622C47.2704 37.6497 47.4766 37.1215 48.0891 36.1153L48.686 35.159V18.509L48.0016 17.8059C47.2516 17.0247 47.1454 16.7121 47.5922 16.6246C48.4641 16.4371 49.0204 16.2809 51.7141 15.4434C53.3547 14.9434 55.0047 14.3965 55.3766 14.2309C56.1766 13.8996 56.2766 13.8809 56.5766 14.1121ZM70.4641 16.7215C70.3954 16.809 70.3172 16.8496 70.2985 16.8278C70.2297 16.7621 70.3672 16.5746 70.4829 16.5746C70.5422 16.5746 70.5422 16.634 70.4641 16.7215ZM45.0141 18.3622C45.7079 18.684 46.4797 19.4465 46.811 20.1684L47.0766 20.7246L47.1454 27.2184C47.1829 30.7934 47.1829 34.0653 47.1516 34.4934C47.1047 35.2465 46.861 36.359 46.7641 36.2715C46.7454 36.2434 46.7829 35.9996 46.8704 35.7247C47.0172 35.2371 47.086 33.3715 46.9766 32.6871C46.8391 31.8371 46.8329 30.1184 46.9485 29.9746C47.036 29.8653 47.036 29.8465 46.9579 29.8871C46.8797 29.934 46.8516 29.7778 46.8704 29.2684C46.8891 28.7809 46.861 28.6153 46.7922 28.684C46.7235 28.7528 46.6766 29.4371 46.6641 30.4715C46.5954 34.7778 46.5891 35.4121 46.5204 35.4809C46.4704 35.5184 46.4391 35.4903 46.4329 35.4122C46.4329 35.334 46.3641 35.4715 46.2954 35.7059C46.2141 35.9496 46.186 36.184 46.2141 36.2434C46.2454 36.2996 46.2454 36.3215 46.1954 36.2809C46.1579 36.2434 46.0297 36.3809 45.9141 36.5746C45.5829 37.1684 45.5422 37.2184 44.9454 37.6996C44.1954 38.3121 43.2579 38.7715 42.036 39.134C40.9922 39.4371 38.1391 40.4434 37.8266 40.6059C37.7297 40.6559 37.6516 40.8121 37.6516 40.9403C37.6516 41.2122 37.486 41.2528 37.2141 41.0465C37.036 40.9184 37.0266 40.8715 37.1454 40.4309C37.2141 40.1778 37.4579 39.5934 37.6829 39.134L38.0891 38.3028L38.0704 30.1496C38.061 25.6684 38.0516 21.8496 38.0516 21.6715C38.0422 21.4184 37.9329 21.2309 37.5829 20.8622L37.1141 20.3746L36.7329 20.8903C36.0704 21.7903 35.9016 22.2684 35.8735 23.3715C35.8547 23.8997 35.8547 27.8621 35.8735 32.1809L35.8954 40.0121L36.2829 40.4434C36.4985 40.6746 36.6766 40.9496 36.6766 41.0465C36.6766 41.3497 36.411 41.6434 36.0891 41.6934C35.7172 41.7496 35.7172 41.6934 36.0891 41.5653C36.4204 41.4496 36.4516 41.359 36.236 41.184C36.0391 41.0184 35.2579 41.1559 33.9516 41.5746C33.4516 41.7309 32.9641 41.8684 32.8766 41.8684C32.6329 41.8684 32.4766 42.0621 32.4766 42.3871C32.4766 42.7559 32.3297 42.6497 32.0172 42.034C31.6172 41.2434 29.1954 35.7153 28.5985 34.2496C28.3141 33.5278 28.0422 32.8559 28.0016 32.7465C27.9547 32.6497 27.9141 34.6809 27.8954 37.2684L27.8766 41.984L28.4235 42.5621C28.8641 43.0184 28.9704 43.1965 28.9391 43.3997C28.911 43.6934 28.6266 43.8809 28.0704 43.9684L27.7391 44.0247L28.111 43.8809C28.3141 43.7996 28.511 43.7122 28.5391 43.684C28.6672 43.5559 28.4829 43.5278 28.2266 43.6246C27.9329 43.7434 27.8266 43.7028 27.9329 43.5278C27.9735 43.459 28.0891 43.4309 28.1891 43.459C28.3641 43.509 28.4329 43.4309 28.3141 43.3121C28.2079 43.2059 24.8704 44.2684 23.9516 44.6996C23.5797 44.8746 23.6766 45.0434 24.136 45.0215L24.5172 45.0028L24.1766 45.1497C23.7641 45.3246 23.3079 45.2934 23.1579 45.0715C23.0016 44.8059 23.2391 44.084 23.8047 43.1559L24.3016 42.3246L24.3329 34.6028C24.3391 30.3559 24.3329 26.6121 24.3016 26.2997C24.2454 25.7434 24.2235 25.6965 23.511 24.9621C23.0829 24.5059 22.8079 24.1434 22.8391 24.0559C22.8672 23.9778 23.1704 23.8684 23.5579 23.7997C23.9204 23.7309 24.9266 23.4403 25.786 23.1465C26.6454 22.8559 27.436 22.5903 27.5454 22.5621C27.7985 22.5028 28.0329 22.9715 28.8516 25.0903C29.1641 25.9121 29.586 26.9371 29.7891 27.3653C29.986 27.7934 30.2579 28.4121 30.3766 28.7309C30.5016 29.0559 30.8954 30.0028 31.2641 30.8309C31.6266 31.6621 31.9954 32.5621 32.0954 32.834C32.2704 33.3246 32.2704 33.284 32.2797 28.6371C32.2797 25.8246 32.2422 23.8121 32.1829 23.5965C32.1141 23.3621 31.8891 23.0778 31.461 22.6996C30.5329 21.8778 30.5141 21.5653 31.3829 21.4184C31.8391 21.3309 34.4079 20.559 35.5422 20.1684C36.2766 19.9059 36.4329 19.8871 36.6079 19.9809C36.7735 20.0903 36.7922 20.0903 36.7454 19.9528C36.6641 19.7496 36.8391 19.6684 37.9454 19.4059C38.4016 19.2997 39.2829 19.0559 39.8985 18.8684C42.3391 18.1184 42.7204 18.0309 43.6204 18.0778C44.2641 18.0996 44.5954 18.1684 45.0141 18.3622ZM65.8735 22.9715C65.8079 23.059 65.7266 23.0996 65.6891 23.0684C65.6579 23.0403 65.6985 22.9715 65.7766 22.9215C65.9829 22.7871 66.011 22.8059 65.8735 22.9715ZM22.7985 24.4247C22.9454 24.6903 22.8391 24.9528 22.261 25.7621C22.0641 26.0184 21.8329 26.4684 21.7329 26.7621C21.5579 27.2684 21.5485 27.6871 21.5391 35.5184L21.5204 43.7434L22.1235 44.3684C22.6016 44.8653 22.7204 45.0434 22.6891 45.2465C22.661 45.5403 22.3297 45.8121 22.2516 45.5997C22.2204 45.5403 22.1641 45.4996 22.1141 45.5309C22.0641 45.5684 22.0579 45.5184 22.086 45.4434C22.1922 45.1684 21.5954 45.2653 20.0922 45.7559C19.3016 46.0184 18.4422 46.2996 18.1704 46.3809C17.8172 46.4871 17.6204 46.6121 17.486 46.8278C17.261 47.1809 17.1829 47.1996 16.9297 46.9747C16.6079 46.6809 16.7641 46.1653 17.5829 44.8465L18.0235 44.1434V36.2934C18.0235 30.9871 17.9829 28.3121 17.9141 28.059C17.8391 27.7934 17.6016 27.4809 17.086 26.9746C16.411 26.3121 16.2454 26.0371 16.4516 25.9121C16.4985 25.8809 16.8704 25.7934 17.2704 25.7153C18.2079 25.5309 20.4954 24.8653 21.4391 24.484C22.3485 24.134 22.6329 24.1121 22.7985 24.4247ZM15.6704 25.0809C15.8954 25.3246 16.0297 26.0184 15.9235 26.4184C15.8829 26.5653 15.8266 28.0121 15.7954 29.6309C15.7579 31.2528 15.6985 32.5997 15.6579 32.6371C15.6297 32.6778 15.5016 32.6778 15.3954 32.6371C15.2297 32.5903 15.211 32.5434 15.2891 32.3934C15.3454 32.2965 15.386 32.0247 15.3766 31.7903C15.3766 31.4184 15.3579 31.3871 15.2704 31.584C15.211 31.7121 15.1016 31.809 15.0266 31.809C14.9579 31.809 14.8985 31.8965 14.8985 32.0059C14.8985 32.1121 14.936 32.1996 14.986 32.1996C15.0329 32.1996 15.0641 32.3059 15.0547 32.4434C15.0454 32.7559 14.9641 32.6778 14.1454 31.4684C13.3454 30.2871 13.286 30.2653 11.9891 30.7746C11.4985 30.959 10.6579 31.2309 10.1204 31.3809L9.13599 31.6434V34.7496C9.13599 36.4684 9.16412 37.8621 9.19537 37.8621C9.35162 37.8621 11.6454 37.1497 11.8797 37.0247C12.0454 36.9465 12.2891 36.6059 12.5547 36.0872C13.2266 34.7684 13.6672 34.4653 14.2235 34.9246L14.4579 35.109L14.4297 38.3246C14.3891 41.6246 14.3516 41.9747 13.9891 42.0434C13.7547 42.0934 13.5016 41.8497 13.0422 41.184C12.4766 40.3559 12.5641 40.3746 11.2454 40.7559C10.6016 40.9309 10.0641 41.0684 10.0329 41.0465C9.93599 40.9496 10.1516 40.784 10.3172 40.8246C10.4141 40.8528 10.5891 40.784 10.7079 40.6871C10.8266 40.5872 10.9829 40.4903 11.0579 40.4903C11.2641 40.4715 11.3235 40.4496 11.5391 40.3246C11.6547 40.2653 11.8891 40.1996 12.0579 40.1871C12.2204 40.1778 12.3579 40.1309 12.3579 40.0903C12.3579 40.0496 12.436 40.0121 12.5329 40.0028C12.8266 39.9934 12.3579 39.8372 11.9954 39.8246C11.636 39.8184 10.1141 40.3746 10.1141 40.5184C10.1141 40.5778 10.0454 40.5997 9.96412 40.559C9.88912 40.5309 9.82037 40.5496 9.82037 40.6059C9.82037 40.6684 9.77974 40.6747 9.72037 40.6465C9.67349 40.6184 9.62349 40.6278 9.62349 40.6871C9.62349 40.734 9.53599 40.7621 9.43912 40.7434C9.30162 40.7153 9.26412 40.7559 9.30162 40.8528C9.33287 40.9309 9.47662 40.9871 9.63287 40.9871C10.0547 40.9871 9.97662 41.1434 9.47662 41.2934L9.03912 41.4184L9.02037 45.1871C9.00787 47.259 8.98912 49.4371 8.98912 50.0309V51.1153L9.55787 51.7622C10.2016 52.5028 10.4047 52.8434 10.4047 53.2247C10.4047 53.4309 10.3391 53.5184 10.1516 53.5965C9.82037 53.7122 9.73287 53.6434 10.0047 53.4684C10.2016 53.3528 10.2985 52.9028 10.1422 52.9028C10.0922 52.9028 9.80162 52.9903 9.47662 53.0997C9.15474 53.2059 8.25787 53.4684 7.47662 53.6934C4.88912 54.4059 4.16412 54.6622 3.95162 54.934C3.76412 55.1778 3.75474 55.1997 3.93287 55.3247C4.08912 55.4434 4.07662 55.4497 3.81412 55.4215C3.42349 55.384 3.25787 55.0434 3.31412 54.4372C3.38287 53.7934 3.78287 53.0997 4.59537 52.2372L5.27662 51.5059L5.28912 42.0528L5.29849 32.5903L4.85787 32.9122C4.09537 33.459 4.00787 33.6434 4.02037 34.6996C4.02662 35.7247 4.04849 35.7059 3.32662 35.5121C2.78912 35.3621 2.17349 34.6996 1.95787 34.0434C1.83287 33.6653 1.80162 33.3528 1.83912 32.7934C1.93912 31.4559 2.37037 30.6465 3.31412 30.0309C3.93287 29.6403 7.30787 28.4871 11.186 27.3559C12.2329 27.0528 13.2454 26.7215 13.4422 26.6246C13.8235 26.4371 14.3204 25.9184 14.5579 25.4621C14.7204 25.1371 15.0547 24.8746 15.3079 24.8746C15.3954 24.8746 15.561 24.9746 15.6704 25.0809ZM61.8391 26.5559C61.8204 26.6809 61.8016 26.6059 61.8016 26.3871C61.7922 26.1747 61.811 26.0746 61.8391 26.1653C61.861 26.2621 61.861 26.4371 61.8391 26.5559ZM52.5922 26.634C52.5922 26.6809 52.5454 26.7309 52.486 26.7309C52.436 26.7309 52.4172 26.6809 52.4454 26.634C52.4766 26.5746 52.5266 26.5371 52.5547 26.5371C52.5735 26.5371 52.5922 26.5746 52.5922 26.634ZM66.4329 32.9434C66.4016 32.9715 66.3141 32.9809 66.2454 32.9496C66.1672 32.9215 66.1954 32.8934 66.3047 32.8934C66.411 32.884 66.4704 32.9121 66.4329 32.9434ZM61.3829 34.3497C61.0516 34.4559 60.7954 34.4559 61.0391 34.3497C61.1485 34.2996 61.3235 34.2684 61.4329 34.2684C61.5891 34.2684 61.5766 34.2903 61.3829 34.3497ZM64.6516 37.3246C64.3704 38.7247 63.8422 40.384 63.1204 42.1121C62.5047 43.5965 62.3391 43.9371 62.2891 43.8809C62.261 43.859 62.436 43.3809 62.6829 42.8246C62.9266 42.2684 63.2391 41.4184 63.3829 40.9403C63.5297 40.4496 63.7766 39.6621 63.9204 39.1809C64.0766 38.6934 64.2641 38.0184 64.3391 37.6684C64.4297 37.3184 64.5766 36.6809 64.6735 36.2528C64.9579 34.9809 64.9454 35.8715 64.6516 37.3246ZM46.7329 36.4778C46.7329 36.5247 46.6641 36.6434 46.5891 36.7496C46.4516 36.9246 46.4516 36.9184 46.5485 36.6622C46.6641 36.3997 46.7329 36.3309 46.7329 36.4778ZM52.6891 36.7309C52.6891 36.7496 52.6204 36.7996 52.5329 36.8278C52.4579 36.8559 52.4172 36.8497 52.4454 36.7903C52.5047 36.6934 52.6891 36.6528 52.6891 36.7309ZM51.4891 37.1403C51.461 37.1684 51.3704 37.1809 51.3047 37.1497C51.2266 37.1215 51.2547 37.0934 51.3641 37.0934C51.4704 37.0809 51.5266 37.1121 51.4891 37.1403ZM50.6891 37.3746C50.5829 37.4246 50.386 37.4528 50.2485 37.4528C50.0266 37.4528 50.0329 37.4434 50.2985 37.3746C50.7079 37.2684 50.9329 37.2684 50.6891 37.3746ZM56.6954 38.1559C57.0079 38.4996 57.086 38.7996 57.086 39.8059C57.086 40.4434 57.0454 40.6059 56.8391 40.9184C56.5672 41.3121 56.3516 41.4496 55.3954 41.809L54.761 42.0434L54.7016 41.7496C54.6735 41.584 54.6454 40.7153 54.6454 39.8184V38.1746L55.0641 38.0309C55.2891 37.9434 55.6891 37.8746 55.9422 37.8746C56.3516 37.8621 56.461 37.9028 56.6954 38.1559ZM45.6579 37.9903C45.6579 38.0121 45.561 38.1059 45.4454 38.2153L45.2204 38.3997L45.4047 38.1746C45.5829 37.9715 45.6579 37.9121 45.6579 37.9903ZM53.8422 40.1871C53.8829 42.6684 53.7454 42.8559 52.8391 41.5746C52.5329 41.1434 52.2516 40.7747 52.2016 40.7434C52.1454 40.7059 52.1047 41.0684 52.1047 41.6715C52.1047 42.6371 52.1047 42.659 51.8516 42.7465C51.7141 42.8059 51.5579 42.8246 51.5079 42.7872C51.411 42.7278 51.3829 39.2403 51.4797 38.9965C51.5891 38.7122 51.861 38.8309 52.2516 39.3497C52.4641 39.6215 52.7891 40.0028 52.9641 40.1996L53.2766 40.5496L53.2172 39.6622C53.1516 38.6559 53.2454 38.3246 53.5985 38.3715C53.8141 38.3997 53.8141 38.4309 53.8422 40.1871ZM60.2297 38.7309C60.1016 39.084 60.1204 39.084 60.5141 38.8871C60.6704 38.7997 60.8454 38.7621 60.8954 38.7934C60.9516 38.8215 60.9922 38.8121 60.9922 38.7715C60.9922 38.7247 61.0579 38.5965 61.1391 38.4871C61.2766 38.3246 61.2766 38.3434 61.2141 38.7309C61.1766 39.0434 61.186 39.1434 61.2641 39.0934C61.3329 39.0559 61.3829 39.0653 61.3829 39.1121C61.3829 39.2122 61.4797 39.2309 62.1922 39.2621C62.5829 39.2809 62.7297 39.2496 62.8266 39.1121C62.8954 39.0153 63.0016 38.9559 63.0516 38.9871C63.1016 39.0247 63.1391 38.9778 63.1391 38.8997C63.1391 38.8121 63.1891 38.7434 63.2391 38.7434C63.3735 38.7434 63.3641 38.8121 63.0516 39.8746C62.2797 42.4434 60.8266 45.2653 58.9516 47.7934C57.9829 49.0934 55.6391 51.5247 54.3016 52.5997C53.0891 53.5872 50.3766 55.2559 48.7547 56.0184C46.8797 56.9184 44.6735 57.7184 43.3141 58.0122C40.8454 58.5372 40.0641 58.6153 37.0641 58.6059C35.2766 58.6059 33.961 58.5559 33.5985 58.4872C33.2766 58.4309 32.8391 58.3528 32.6204 58.3309C31.6829 58.2247 31.1079 58.0872 29.1079 57.5215C27.1454 56.9653 23.6954 55.3059 21.9079 54.0653C20.6891 53.2059 20.0829 52.7184 18.9985 51.6809C18.5391 51.2528 17.886 50.6559 17.5329 50.3621C17.1829 50.0715 16.8329 49.759 16.7516 49.6684C16.6766 49.5809 16.5579 49.534 16.4891 49.5528C16.4329 49.5746 16.3516 49.5434 16.3141 49.4934C16.2829 49.4371 16.186 49.3871 16.1079 49.3871C16.0016 49.3871 15.9829 49.4465 16.0204 49.5934C16.0891 49.7965 16.0797 49.7965 15.786 49.5746C15.4329 49.309 14.7704 48.3715 13.9704 46.9934C13.6579 46.4559 13.286 45.8621 13.1516 45.6746C12.9454 45.3934 12.9329 45.3621 13.111 45.5121C13.3079 45.6747 13.3141 45.6746 13.2954 45.5184C13.286 45.334 13.5704 45.2184 14.0485 45.1996C14.2235 45.1871 14.3016 45.2278 14.2516 45.2934C14.2141 45.3621 14.2516 45.384 14.3704 45.3559C14.9454 45.1778 15.0922 45.1684 15.1422 45.3153C15.1829 45.3934 15.211 45.8903 15.2204 46.4184L15.2391 47.3934L15.9704 48.2559C16.9391 49.3871 17.0079 49.4247 18.286 49.3372C19.136 49.2809 19.311 49.2403 19.4016 49.084C19.4485 48.9778 19.5266 48.8997 19.5766 48.8997C19.6141 48.8997 19.8766 49.1059 20.1422 49.3559C20.9422 50.1184 21.3704 50.4028 21.9204 50.4996C22.2016 50.5496 22.2329 50.5403 22.1235 50.4122C21.8516 50.0809 22.1454 50.1871 22.9141 50.6871C24.2047 51.5247 27.0079 53.059 28.111 53.5278C30.2391 54.4247 32.4454 55.0122 34.7204 55.2559C36.0297 55.4028 39.2141 55.3153 40.5829 55.0997C46.861 54.1247 52.436 50.6747 56.5391 45.2371C56.9891 44.6403 57.5141 43.909 57.711 43.5965C58.1516 42.9122 59.3516 40.4903 59.8704 39.2621C60.0735 38.7621 60.2704 38.3715 60.2891 38.3997C60.3079 38.4184 60.2891 38.5746 60.2297 38.7309ZM50.5829 39.5434C50.6797 39.9246 50.6516 42.1309 50.5329 42.4246C50.3172 43.0121 49.6235 43.5278 49.0766 43.5278C48.6672 43.5278 48.2391 43.0684 48.1516 42.5434C48.111 42.3246 48.111 41.6528 48.1516 41.0372L48.2172 39.9153H48.4922C48.8235 39.9153 48.8704 40.0715 48.8922 41.1371C48.911 42.259 48.9797 42.4934 49.2735 42.5309C49.8079 42.5809 49.9454 42.1809 49.9579 40.5403C49.9579 39.9434 49.986 39.4247 50.0266 39.3965C50.1704 39.2403 50.5235 39.3372 50.5829 39.5434ZM47.0079 40.734L47.3704 41.0684V42.1903C47.3704 43.284 47.3579 43.3309 47.0766 43.7434C46.7329 44.2309 46.186 44.5434 45.8141 44.4465C45.6891 44.4184 45.4141 44.2496 45.2204 44.084C44.8079 43.7247 44.7016 43.2621 44.8204 42.3184C44.9266 41.4684 45.8141 40.4028 46.4204 40.4028C46.5391 40.4028 46.8016 40.5497 47.0079 40.734ZM44.2922 41.4871C44.4391 41.8372 44.3891 41.8965 43.7641 42.1028C43.0235 42.3559 42.9266 42.434 42.9266 42.7465V43.0403L43.4516 42.9809C43.961 42.9215 43.9704 42.9215 44.0391 43.1965C44.1266 43.5372 43.9797 43.6653 43.3079 43.8309L42.8266 43.9559V45.4496L42.5141 45.5184C42.3485 45.5496 42.1641 45.5403 42.1235 45.4996C42.0766 45.4496 42.0579 44.6121 42.0641 43.6246L42.0954 41.8372L42.9735 41.5247C44.0954 41.1246 44.1454 41.1246 44.2922 41.4871ZM35.5516 41.7684C35.5235 41.8184 35.4141 41.8684 35.3266 41.8559C35.1891 41.8559 35.2016 41.8372 35.3579 41.7684C35.6204 41.6621 35.6204 41.6621 35.5516 41.7684ZM35.1141 41.9184C35.1141 41.9371 34.9266 42.0059 34.7016 42.0621C34.4672 42.1215 34.1954 42.1996 34.0891 42.2309C33.9797 42.259 33.9204 42.2496 33.961 42.209C34.0672 42.1028 35.1141 41.8278 35.1141 41.9184ZM33.5797 42.4246C33.511 42.4434 33.3954 42.4434 33.336 42.4246C33.2672 42.3934 33.3141 42.3746 33.4516 42.3746C33.5891 42.3746 33.6391 42.3934 33.5797 42.4246ZM39.4079 42.8621C39.6829 43.1559 39.6641 43.684 39.361 44.134C39.0579 44.5746 39.0579 44.6121 39.3516 44.8871L39.586 45.0997L39.6454 44.759C39.7204 44.3684 40.0641 44.0746 40.3391 44.1715C40.5422 44.2621 40.4735 44.6996 40.1891 45.0621C39.9454 45.3746 39.9454 45.4996 40.1891 45.7247C40.4547 45.9684 40.4329 46.1559 40.1329 46.2621C39.9454 46.3403 39.8297 46.3309 39.7329 46.2528C39.6235 46.1559 39.5454 46.184 39.3204 46.3997C38.9891 46.7215 38.4141 46.8965 38.1516 46.7621C38.0516 46.6996 37.8454 46.5247 37.711 46.3497C37.3297 45.8997 37.3579 45.4309 37.8079 44.9153C38.1297 44.5247 38.1391 44.4934 38.0016 44.2903C37.7985 43.9965 37.8079 43.7434 38.0422 43.3528C38.2454 43.0184 38.7641 42.6497 39.0391 42.6497C39.136 42.6497 39.2922 42.7465 39.4079 42.8621ZM35.9329 43.7809C35.9641 43.8684 35.9922 44.084 35.9922 44.2684C35.9922 44.6028 35.9641 44.6309 35.3579 44.7184C35.1829 44.7496 35.1704 44.8372 35.161 46.184C35.1516 46.9747 35.1329 47.6497 35.1016 47.6778C35.0735 47.6996 34.9079 47.7559 34.7422 47.7872L34.4297 47.8434V44.9747L34.1641 45.0121C34.0079 45.0434 33.8141 45.0997 33.7266 45.1371C33.5704 45.1996 33.5516 45.1497 33.5516 44.759C33.5516 44.3184 33.5516 44.3184 33.9704 44.2122C34.5954 44.0559 35.3391 43.8121 35.5016 43.7122C35.7266 43.5872 35.8641 43.6059 35.9329 43.7809ZM26.9766 43.8809C26.9485 43.909 26.861 43.9184 26.7922 43.8871C26.7141 43.859 26.7454 43.8309 26.8516 43.8309C26.9579 43.8215 27.0172 43.8497 26.9766 43.8809ZM32.8672 45.0121C33.1297 45.4434 33.111 45.5403 32.7579 45.6684C32.5266 45.7434 32.4172 45.734 32.2329 45.6184C32.036 45.4903 31.9954 45.4903 31.8516 45.6371C31.5891 45.8997 31.7047 46.0965 32.2204 46.2528C32.486 46.3309 32.8266 46.5247 32.9829 46.6715C33.2391 46.9059 33.2672 46.9934 33.2172 47.2684C33.1297 47.7184 32.6704 48.3246 32.2329 48.5746C31.7329 48.859 31.6766 48.859 31.3141 48.5465C30.9516 48.2434 30.9235 47.9809 31.236 47.7747C31.4204 47.659 31.5204 47.6497 31.7829 47.7559C32.0641 47.8621 32.1141 47.8559 32.2422 47.6871C32.4766 47.3653 32.3985 47.2496 31.8204 46.984C31.5079 46.8559 31.186 46.6715 31.0891 46.584C30.5235 46.0746 31.4016 44.6996 32.2797 44.6996C32.6204 44.6996 32.7016 44.7496 32.8672 45.0121ZM51.811 44.8653C51.6266 44.9434 51.4329 45.0715 51.3922 45.1497C51.3516 45.2278 51.1954 45.2872 51.0516 45.2872C50.8454 45.2872 50.8141 45.3059 50.9329 45.384C51.0579 45.4622 51.0516 45.4809 50.9141 45.4809C50.7079 45.4809 50.6797 45.6371 50.8641 45.7059C51.0016 45.7559 51.0204 45.734 50.3954 46.184C49.7704 46.634 46.9297 48.0872 45.9016 48.4809C43.8704 49.2684 43.0516 49.5746 42.8266 49.6215C42.6891 49.6497 42.1922 49.7871 41.7047 49.9246C40.6516 50.2184 38.6954 50.5997 37.5547 50.7059C36.8329 50.784 36.3829 50.8309 35.4547 50.9496C34.2141 51.1059 33.7454 51.1246 33.8235 51.009C34.0266 50.6684 33.8516 50.4309 33.4641 50.5309C33.2954 50.5684 33.2454 50.5497 33.2954 50.4715C33.336 50.4122 33.3079 50.3621 33.2079 50.3621C33.1204 50.3621 33.0704 50.3934 33.0891 50.4309C33.1204 50.4809 32.8454 50.5184 32.486 50.5309C31.7235 50.5497 31.7235 50.5496 33.111 50.1778C34.1547 49.8934 34.7422 49.7309 37.0641 49.0434C37.6829 48.859 39.136 48.4403 40.2891 48.1059C43.286 47.2371 44.3204 46.9371 46.1954 46.359C47.1141 46.0746 48.2954 45.7153 48.8329 45.5684C49.3704 45.4121 50.2485 45.159 50.786 45.0028C51.8516 44.6903 52.3891 44.6121 51.811 44.8653ZM61.7516 45.0496C61.6829 45.1996 61.6172 45.2559 61.5954 45.1996C61.5766 45.1309 61.6172 45.0215 61.6766 44.9434C61.8516 44.7309 61.8797 44.7684 61.7516 45.0496ZM29.7016 45.6746C30.2485 45.9403 30.3766 46.2715 30.3766 47.4059C30.3766 48.2434 30.3579 48.3246 30.0829 48.7122C29.7516 49.1934 29.2235 49.5809 28.9329 49.5809C28.8235 49.5809 28.5204 49.3684 28.2672 49.1059C27.8672 48.7122 27.7891 48.5684 27.7766 48.2559C27.7297 46.984 27.8954 46.4684 28.4922 45.9122C28.9985 45.4309 29.1266 45.4028 29.7016 45.6746ZM61.0704 46.2621C61.0016 46.359 60.9329 46.4278 60.9016 46.409C60.8641 46.3684 61.0797 46.0684 61.1485 46.0684C61.1672 46.0684 61.1391 46.1559 61.0704 46.2621ZM25.9235 46.5434C26.0297 46.6121 26.0704 46.9934 26.1079 48.1184C26.1485 49.4246 26.1766 49.5809 26.3141 49.5247C26.4016 49.4934 26.6641 49.3965 26.9016 49.3184C27.3891 49.1434 27.4954 49.2215 27.4954 49.7309C27.4954 50.0121 27.4641 50.0309 26.4985 50.334C25.9516 50.5121 25.4735 50.6278 25.4454 50.5997C25.4141 50.5684 25.386 49.6497 25.3672 48.5559C25.3266 46.4496 25.3079 46.5559 25.7391 46.4684C25.7672 46.4684 25.8454 46.4965 25.9235 46.5434ZM60.7391 46.7996C60.6516 46.9371 60.561 47.0434 60.5422 47.0434C60.5235 47.0434 60.561 46.9371 60.6204 46.7996C60.6797 46.6621 60.7672 46.5559 60.8141 46.5559C60.8641 46.5559 60.8266 46.6621 60.7391 46.7996ZM24.4672 47.1309C24.6235 47.4246 24.5954 47.9215 24.4204 47.9215C24.3391 47.9215 24.2641 47.8621 24.2641 47.7934C24.2516 47.7371 24.2235 47.8059 24.1829 47.9715C24.1079 48.3434 23.7141 48.4184 23.4422 48.1184C23.2672 47.9309 23.2672 47.884 23.3954 47.5028C23.5204 47.1497 23.5891 47.0809 23.8829 47.034C24.0672 46.9934 24.2516 46.9653 24.2922 46.9559C24.3329 46.9559 24.4079 47.034 24.4672 47.1309ZM11.7922 47.4059C11.9766 47.609 12.3891 48.1059 12.6891 48.509C13.0016 48.909 13.4829 49.5434 13.7766 49.9246C14.3891 50.734 17.0766 53.3903 18.1204 54.2309C21.4985 56.9465 24.8985 58.7934 28.6954 59.9747C31.3047 60.784 34.6641 61.2997 37.2329 61.2997C38.3954 61.2997 41.2954 61.0965 42.261 60.9497C42.4954 60.9122 42.661 60.9122 42.6329 60.9403C42.6016 60.959 42.261 61.0372 41.8797 61.0965C40.7391 61.2715 40.1829 61.409 40.2485 61.5059C40.2766 61.5559 40.2579 61.5934 40.2016 61.5934C40.1516 61.5934 40.0329 61.6715 39.936 61.7622C39.8204 61.8872 39.7516 61.8965 39.7329 61.8184C39.7016 61.7309 39.6235 61.7403 39.4579 61.8497C39.2735 61.9747 39.1547 61.984 38.9016 61.8965C38.7266 61.8372 38.3829 61.8184 38.1391 61.8497C36.861 62.0122 34.3891 62.0247 33.4516 61.8684C33.1016 61.809 32.7391 61.7622 32.6516 61.7497C32.5641 61.7497 32.4954 61.6997 32.5047 61.6528C32.5141 61.6059 32.4079 61.5434 32.2516 61.5372C32.1047 61.5153 31.811 61.409 31.6079 61.2934C31.3141 61.1372 31.1266 61.0965 30.8266 61.1372C30.6016 61.1653 30.4454 61.1434 30.4829 61.0965C30.5422 60.9872 30.4641 60.9809 29.6141 61.009C29.2235 61.0184 28.7641 60.959 28.4922 60.8715C26.7735 60.3059 26.4329 60.1778 26.0891 60.0215C25.8735 59.9153 25.6704 59.8372 25.6204 59.8372C25.3391 59.8372 22.0766 58.1965 21.2547 57.6372C21.0204 57.4747 20.7266 57.2872 20.6016 57.2184C20.4735 57.1497 20.3672 57.0528 20.3672 56.9934C20.3672 56.9465 20.3079 56.9059 20.2485 56.9059C20.0454 56.9059 19.0672 56.2309 18.2391 55.5184C18.0141 55.3153 17.7204 55.0997 17.6016 55.0434C17.486 54.9747 17.2891 54.8184 17.1735 54.6903C17.0579 54.5747 16.9204 54.4653 16.861 54.4653C16.7141 54.4653 14.5079 52.2309 14.0672 51.6434C13.5797 50.9809 13.2766 50.6559 13.1391 50.6559C13.0141 50.6559 13.0141 51.5153 13.1579 52.659C13.2454 53.3809 13.2391 53.7309 13.1391 54.3372C13.061 54.7497 12.9829 55.0309 12.9641 54.9528C12.8672 54.6684 12.436 54.1715 12.3297 54.2403C12.261 54.2809 12.2516 54.1715 12.2891 53.9278C12.3579 53.5372 12.2204 52.2309 12.0579 51.584C11.9891 51.3215 11.7922 51.0465 11.4704 50.7434C10.9922 50.2871 10.8829 50.0028 11.0797 49.6903C11.1485 49.5809 11.2266 49.5809 11.4797 49.6684C11.6547 49.7309 11.811 49.7778 11.8329 49.7778C11.8516 49.7778 11.8891 49.6309 11.9204 49.4465C11.9766 49.1809 11.9391 49.0653 11.7829 48.909C11.6079 48.7309 11.5204 48.4496 11.5672 48.1871C11.5766 48.1371 11.5391 48.1278 11.4985 48.1559C11.4516 48.1871 11.3641 47.9809 11.3047 47.6996C11.1485 46.9246 11.2641 46.8559 11.7922 47.4059ZM11.2547 48.284C11.2266 48.3809 11.2079 48.3246 11.2079 48.1684C11.2079 47.9996 11.2266 47.9309 11.2547 47.9903C11.2766 48.059 11.2766 48.1965 11.2547 48.284ZM11.3516 48.8215C11.3235 48.8997 11.2954 48.8684 11.2954 48.7621C11.2829 48.6559 11.3141 48.5965 11.3422 48.6371C11.3704 48.6653 11.3829 48.7528 11.3516 48.8215ZM60.5329 52.1497C61.3516 53.0684 61.4985 53.3028 61.3704 53.4872C61.2954 53.6153 61.2641 53.6153 61.1766 53.459C61.1266 53.3715 60.9922 53.2934 60.8735 53.2934C60.6516 53.2934 59.4672 54.2903 58.6391 55.1778C58.0141 55.8434 58.0829 55.8528 57.1922 55.0215L56.5891 54.4653L56.8016 54.1434C57.1454 53.6434 58.3641 52.4247 58.7954 52.1497C59.4672 51.7215 59.6329 51.5372 59.5172 51.3215C59.3204 50.959 59.8579 51.409 60.5329 52.1497ZM13.8329 54.5247C13.8422 55.0309 13.8047 55.4903 13.7454 55.5997C13.6485 55.7622 13.6266 55.7434 13.6204 55.4434C13.6079 55.1372 13.5985 55.1309 13.5391 55.3434C13.511 55.4809 13.3954 55.5997 13.286 55.6184C13.1797 55.6372 12.9954 55.7434 12.8766 55.8622C12.7485 55.9684 12.6204 56.0278 12.5829 55.9872C12.5329 55.9497 12.5735 55.8622 12.6516 55.8028C12.8766 55.6278 13.111 55.0028 13.336 54.0247C13.4422 53.5372 13.5579 53.0778 13.5985 52.9997C13.6954 52.7653 13.8141 53.5278 13.8329 54.5247ZM64.3797 54.4747C64.6735 54.5809 69.3891 59.2215 69.3891 59.3965C69.3891 59.4559 69.2516 59.6309 69.0891 59.7965C68.7954 60.0622 68.7829 60.0622 68.8329 59.8559C68.911 59.5434 68.6954 59.5809 68.2454 59.9622C68.0422 60.1372 67.086 61.0684 66.1204 62.0247C65.1516 62.9715 64.2829 63.7934 64.1954 63.8497C64.0579 63.9184 63.8922 63.8215 63.3641 63.3247C63.0016 62.9903 62.4579 62.5122 62.1641 62.2778C61.8704 62.034 61.5766 61.7997 61.5204 61.7403C61.461 61.6934 61.0704 61.3309 60.6391 60.959C60.2204 60.5778 59.7516 60.1497 59.6047 59.9934C59.4579 59.8247 59.3204 59.7184 59.3016 59.7497C59.1547 59.8934 58.9797 60.3934 59.0204 60.5122C59.1172 60.7934 58.8235 60.4903 58.686 60.1684C58.4704 59.6403 58.511 59.1434 58.8329 58.6559C59.2922 57.9434 62.5547 54.8247 63.1516 54.534C63.5297 54.3497 63.9891 54.3184 64.3797 54.4747ZM6.35162 54.759C6.08912 54.8747 5.93287 54.8747 6.10787 54.759C6.18599 54.709 6.32349 54.6684 6.40162 54.6684C6.49849 54.6684 6.47974 54.6997 6.35162 54.759ZM5.91412 54.8934C5.91412 54.9528 4.95787 55.2184 4.49537 55.2872C4.02037 55.3559 4.13599 55.2934 4.95787 55.0622C5.58287 54.8747 5.91412 54.8184 5.91412 54.8934ZM56.0579 57.4934C56.1579 57.5997 56.2079 57.6872 56.1766 57.6872C56.1391 57.6872 56.0204 57.5997 55.9141 57.4934C55.8079 57.3872 55.7579 57.2965 55.7954 57.2965C55.8454 57.2965 55.9641 57.3872 56.0579 57.4934ZM56.4516 57.884C56.4797 57.9309 56.461 57.9809 56.411 57.9809C56.3516 57.9809 56.3047 57.9309 56.3047 57.884C56.3047 57.8247 56.3235 57.7872 56.3422 57.7872C56.3704 57.7872 56.4204 57.8247 56.4516 57.884ZM56.6079 58.2434C56.7329 58.3997 56.7235 58.4122 56.5766 58.284C56.4797 58.2153 56.4016 58.1372 56.4016 58.1184C56.4016 58.0403 56.4797 58.0872 56.6079 58.2434ZM47.0766 59.7309C46.8797 59.8934 44.0266 60.7153 43.6579 60.7059C43.5516 60.7059 43.9891 60.559 44.6329 60.384C45.2766 60.2059 46.0891 59.9747 46.4391 59.8559C47.1829 59.6215 47.1922 59.6122 47.0766 59.7309ZM47.0766 60.2278C47.0454 60.2747 46.9672 60.3247 46.9204 60.3247C46.861 60.3247 46.8516 60.2747 46.8797 60.2278C46.9079 60.1684 46.9891 60.1309 47.036 60.1309C47.0954 60.1309 47.1047 60.1684 47.0766 60.2278ZM43.3829 60.7747C43.3547 60.8028 43.2672 60.8122 43.1985 60.784C43.1204 60.7559 43.1516 60.7247 43.2579 60.7247C43.3641 60.7153 43.4235 60.7434 43.3829 60.7747ZM42.9954 60.8715C42.9641 60.8997 42.8766 60.9122 42.8079 60.8809C42.7297 60.8528 42.7579 60.8247 42.8672 60.8247C42.9735 60.8122 43.0329 60.8434 42.9954 60.8715ZM73.4516 63.2059C74.986 64.6622 75.8954 65.5872 75.9141 65.7247C75.9329 65.8715 75.8266 66.0559 75.5891 66.2809L75.2485 66.6122L75.3079 66.2997C75.3579 66.0372 75.3391 65.9809 75.1422 65.8997C75.0141 65.8528 74.4391 65.3747 73.8704 64.8372C73.3079 64.2997 72.8391 63.9184 72.8391 63.9965C72.8391 64.0747 72.9047 64.134 72.9954 64.1434C73.0829 64.1528 73.0422 64.1934 72.9047 64.2309C72.6704 64.309 72.6704 64.309 72.9735 64.3184C73.2954 64.3278 73.3641 64.5528 73.0891 64.7309C72.9829 64.7965 72.9829 64.8372 73.0829 64.8934C73.2391 64.9934 73.1391 65.2653 72.9266 65.3559C72.7891 65.4028 72.7985 65.384 72.9454 65.2184C73.0516 65.0997 73.0829 65.0122 73.0141 64.9622C72.8454 64.8653 72.711 65.0028 72.7016 65.2872C72.6891 65.5403 72.6891 65.5403 72.6016 65.2278C72.5141 64.9153 72.3891 64.8247 72.2704 65.0028C72.2422 65.0497 72.3016 65.1184 72.3891 65.1497C72.486 65.1778 72.4172 65.1871 72.2516 65.1684C72.0266 65.1497 71.9297 65.1872 71.9297 65.2872C71.9297 65.3747 71.9954 65.4122 72.1141 65.3747C72.2204 65.3559 72.3485 65.4028 72.4266 65.5122C72.4954 65.6184 72.6016 65.6965 72.6516 65.6965C72.7485 65.6965 72.9954 65.9872 73.0016 66.1153C73.0016 66.1653 72.9329 66.1247 72.8454 66.0465C72.7704 65.959 72.6329 65.8903 72.5547 65.8903C72.4766 65.8903 72.4172 65.8434 72.4172 65.7934C72.4172 65.734 72.3016 65.6372 72.1516 65.5684C71.9954 65.5122 71.8516 65.4122 71.811 65.3559C71.7641 65.2934 71.7329 65.3059 71.7329 65.3747C71.7329 65.5778 71.5766 65.5184 71.4704 65.2872C71.3829 65.0903 71.3704 65.0997 71.3704 65.384C71.3704 65.559 71.4016 65.6684 71.4329 65.6278C71.5266 65.4997 71.8329 65.5122 71.8329 65.6465C71.8329 65.8122 71.5672 66.0184 71.4516 65.9497C71.3141 65.8622 71.2454 66.0278 71.3516 66.184C71.4204 66.3122 71.4391 66.3122 71.4391 66.184C71.4391 66.0559 71.4516 66.0559 71.5391 66.184C71.6079 66.2997 71.6454 66.2809 71.7235 66.0872C71.811 65.8528 71.8204 65.8528 71.8204 66.0559C71.8329 66.2028 71.8891 66.2809 72.0079 66.2809C72.2516 66.2809 72.6141 66.6809 72.436 66.7403C72.3391 66.7809 72.3579 66.8278 72.486 66.9247C72.7391 67.1122 72.886 67.0934 72.9547 66.8559C72.9954 66.7403 73.0704 66.6809 73.1579 66.7122C73.2454 66.7497 73.336 66.6809 73.3954 66.5434C73.4422 66.4278 73.4829 66.3872 73.4829 66.4497C73.4922 66.6059 73.9016 66.6122 74.0579 66.4559C74.1172 66.3997 74.1954 66.3684 74.2235 66.3997C74.2516 66.4278 73.8922 66.7997 73.4235 67.2184C72.5547 68.0184 71.5485 68.9278 70.9516 69.4747C70.611 69.7965 70.4454 69.759 70.5016 69.3778C70.5516 69.0153 71.2454 68.5872 71.2454 68.9278C71.2454 68.9778 71.2954 68.9965 71.3516 68.9559C71.4329 68.9184 71.4204 68.8684 71.3329 68.8215C71.1485 68.6934 71.1204 68.3028 71.3047 68.2059C71.4391 68.1278 71.4329 68.0997 71.2547 67.9309C71.1391 67.8247 71.0516 67.6997 71.0516 67.6372C71.0516 67.5903 71.1672 67.6497 71.3141 67.7872C71.6172 68.0684 71.7047 68.059 71.5266 67.7653C71.3829 67.5434 71.4797 67.2372 71.6641 67.3184C71.7454 67.3465 71.8016 67.3059 71.8016 67.2184C71.8016 67.1403 71.7454 67.1028 71.6766 67.1309C71.6079 67.1497 71.5391 67.1028 71.5204 67.0059C71.4891 66.8497 71.4797 66.8497 71.3422 67.0122C71.2547 67.1215 71.2454 67.1684 71.3235 67.1215C71.4797 67.0247 71.4704 67.1403 71.3047 67.3184C71.186 67.434 71.1485 67.4059 71.0579 67.1403C71.0016 66.9747 70.9516 66.8372 70.9516 66.8278C70.9516 66.8184 71.1579 66.8184 71.4204 66.8184C71.9079 66.8184 71.8891 66.7903 71.9204 67.4247C71.9297 67.5997 71.9891 67.6497 72.1735 67.6497C72.4766 67.6497 72.4954 67.4528 72.2016 67.4434C72.0766 67.4434 72.036 67.4153 72.1047 67.3872C72.2016 67.3465 72.2016 67.3059 72.1047 67.1809C71.9954 67.0528 71.9954 67.0434 72.1141 67.1122C72.1922 67.1497 72.4079 67.1997 72.6016 67.2184C72.9047 67.2497 72.9266 67.2372 72.7297 67.1622C72.6016 67.1028 72.4579 67.0809 72.4172 67.1122C72.3704 67.1403 72.3016 67.1122 72.2516 67.0434C72.1141 66.8184 71.6547 66.6434 71.3422 66.6934C71.1766 66.7215 71.0204 66.6997 70.9922 66.6528C70.9641 66.6122 70.8266 66.6059 70.6891 66.634C70.5329 66.6715 70.4141 66.6528 70.3579 66.5653C70.3172 66.4965 70.2485 66.4684 70.2016 66.5059C70.1016 66.6122 70.3579 66.7622 70.6579 66.7809C70.7954 66.7809 70.8454 66.809 70.786 66.8372C70.7172 66.8559 70.6579 66.9934 70.6579 67.1215C70.6579 67.2778 70.6016 67.3559 70.4954 67.3653C70.3391 67.3747 70.3266 67.3872 70.4829 67.4247C70.5829 67.4434 70.6297 67.5215 70.5891 67.609C70.5516 67.7184 70.5016 67.7278 70.4141 67.6497C70.3172 67.5715 70.2704 67.5715 70.2204 67.659C70.161 67.7372 70.1204 67.7278 70.0641 67.6372C69.9454 67.4528 69.9579 67.3247 70.0735 67.4059C70.1329 67.434 70.1704 67.4153 70.1704 67.3559C70.1704 67.2872 70.1016 67.259 70.0266 67.2965C69.9454 67.3247 69.8766 67.3059 69.8766 67.259C69.8766 67.1997 69.9579 67.1622 70.0547 67.1622C70.1891 67.1622 70.2016 67.1403 70.0735 67.0622C69.986 67.0122 69.9079 67.0122 69.8704 67.0747C69.8391 67.1309 69.761 67.1122 69.6829 67.0122C69.4954 66.7903 69.4079 66.8372 69.4485 67.1309C69.4672 67.2872 69.4579 67.3247 69.4297 67.2309C69.361 67.0247 69.4016 67.034 68.961 67.209L68.6079 67.3559V67.0122C68.6079 66.8278 68.5704 66.6715 68.5204 66.6715C68.4704 66.6715 68.4016 66.5934 68.3735 66.4965C68.3454 66.409 68.336 66.5247 68.3547 66.7684C68.3641 67.0122 68.3641 67.1309 68.3454 67.034C68.3141 66.9059 68.2454 66.8778 68.0891 66.9247C67.8766 66.984 67.8766 66.984 68.0704 66.8278C68.1891 66.7403 68.2172 66.6809 68.1391 66.6715C68.0704 66.6715 68.0422 66.6247 68.0829 66.5559C68.1204 66.4965 68.111 66.4778 68.0422 66.5153C67.9266 66.584 66.8516 66.2809 66.8516 66.1653C66.8516 66.0465 67.086 66.0747 67.2329 66.2028C67.3391 66.3121 67.3485 66.2934 67.2891 66.1059C67.2329 65.8903 67.2422 65.8809 67.5735 65.9403C67.886 65.9997 67.9266 65.9872 67.9266 65.8122C67.9266 65.5778 67.661 65.4497 67.4766 65.6059C67.3891 65.6747 67.3016 65.6747 67.1516 65.5997C67.036 65.5403 66.9485 65.5309 66.9485 65.5872C66.9485 65.6372 66.9954 65.6965 67.0579 65.7153C67.1235 65.734 67.1141 65.7934 67.0172 65.8715C66.9016 65.9684 66.8704 65.9684 66.8891 65.8715C66.8891 65.8028 66.861 65.7434 66.8016 65.7434C66.7516 65.7434 66.7235 65.8434 66.7329 65.959C66.7735 66.2122 66.6641 66.2434 66.461 66.0559C66.3422 65.959 66.3422 65.9684 66.4516 66.1059C66.5891 66.2934 66.5485 66.3121 66.2141 66.2934C65.9641 66.2715 65.5329 66.7122 65.6297 66.8872C65.6704 66.9559 65.6016 66.9184 65.4829 66.7997L65.2579 66.584L65.5329 66.184C65.7954 65.8028 70.836 60.9122 70.9641 60.9122C70.9922 60.9122 72.1141 61.9465 73.4516 63.2059ZM72.2891 65.7934C72.3891 65.8997 72.5141 65.9872 72.5922 65.9872C72.661 65.9872 72.7391 66.0559 72.7704 66.1372C72.8079 66.2122 72.9329 66.2809 73.061 66.2809C73.1891 66.2809 73.2954 66.3215 73.2954 66.3809C73.2954 66.4278 73.1579 66.4778 72.9954 66.4778C72.7704 66.4778 72.7016 66.5153 72.7391 66.6247C72.7766 66.6997 72.7579 66.7903 72.711 66.8184C72.6516 66.8559 72.6141 66.7903 72.6141 66.6809C72.6141 66.5653 72.5735 66.4778 72.5141 66.4778C72.4641 66.4778 72.4172 66.3872 72.4172 66.2809C72.4172 66.1372 72.3485 66.0872 72.1516 66.0747C71.9079 66.0747 71.9016 66.0684 72.0766 65.9872C72.2422 65.9184 72.2422 65.8997 72.1047 65.8997C72.0079 65.8903 71.9297 65.8247 71.9297 65.7434C71.9297 65.5403 72.0954 65.559 72.2891 65.7934ZM74.5172 66.184C74.4891 66.2309 74.4016 66.2809 74.3391 66.2809C74.2735 66.2809 74.2829 66.2434 74.3704 66.184C74.5579 66.0684 74.5954 66.0684 74.5172 66.184ZM67.3079 66.7122C67.3079 66.7903 67.2141 66.8372 67.0766 66.8278C66.8704 66.8184 66.861 66.809 67.0172 66.6934C67.2329 66.5372 67.3079 66.5434 67.3079 66.7122ZM67.9954 66.7309C67.9641 66.7622 67.8766 66.7684 67.8079 66.7403C67.7297 66.7122 67.7579 66.6809 67.8672 66.6809C67.9735 66.6715 68.0329 66.6997 67.9954 66.7309ZM71.0391 67.3747C71.0516 67.4247 70.9829 67.4528 70.9016 67.4528C70.7579 67.4528 70.6985 67.1497 70.8266 67.0247C70.8954 66.9653 71.0204 67.1903 71.0391 67.3747ZM67.661 67.1309C67.5922 67.1497 67.4766 67.1497 67.4172 67.1309C67.3485 67.1028 67.3985 67.0809 67.5329 67.0809C67.6704 67.0809 67.7204 67.1028 67.661 67.1309ZM68.1204 67.1622C68.1204 67.209 68.1016 67.259 68.0829 67.259C68.0516 67.259 68.0016 67.209 67.9735 67.1622C67.9454 67.1028 67.9641 67.0622 68.0141 67.0622C68.0704 67.0622 68.1204 67.1028 68.1204 67.1622ZM69.7891 67.259C69.8016 67.3059 69.8079 67.4247 69.8079 67.5028C69.8079 67.8153 69.7797 67.8559 69.6454 67.7278C69.536 67.6184 69.536 67.5809 69.6735 67.4809C69.7704 67.4059 69.7891 67.3653 69.7141 67.3559C69.5641 67.3559 69.536 67.1622 69.6829 67.1622C69.7422 67.1622 69.7891 67.1997 69.7891 67.259ZM78.0704 67.5122C78.5985 67.9715 78.8516 68.4872 78.9329 69.2403C78.9704 69.759 78.9516 69.9059 78.7454 70.2934C78.6079 70.5497 78.4235 70.8528 78.336 70.9809L78.1579 71.2122L78.2266 70.9684C78.2672 70.8309 78.3454 70.6965 78.3954 70.6684C78.4422 70.6372 78.4516 70.5497 78.4329 70.4715C78.4016 70.3934 78.3641 70.0715 78.336 69.7497C78.3141 69.4247 78.2079 68.9184 78.111 68.6247C77.9329 68.0997 77.9266 68.0872 77.5735 68.0997C77.2516 68.1184 77.086 68.2247 76.4016 68.8809C75.9516 69.2903 75.6016 69.6684 75.6204 69.7184C75.6297 69.7684 75.611 69.7872 75.561 69.759C75.4454 69.6903 74.8204 70.3434 74.8985 70.4622C74.9266 70.5122 74.8985 70.5497 74.8204 70.5403C74.6641 70.5309 73.9891 71.0747 73.1579 71.8965C72.1922 72.8622 71.9391 73.1871 71.9954 73.4184C72.0766 73.7122 71.8704 73.6247 71.636 73.2622C71.3141 72.7465 71.5391 72.4434 73.6391 70.5778C74.3329 69.9622 75.2579 69.1122 75.6891 68.684C76.5954 67.7934 77.3579 67.1622 77.5329 67.1622C77.6016 67.1622 77.8391 67.3184 78.0704 67.5122ZM69.4391 67.7465C69.4672 67.7934 69.4485 67.8434 69.4016 67.8434C69.3391 67.8434 69.2922 67.7934 69.2922 67.7465C69.2922 67.6872 69.311 67.6497 69.3329 67.6497C69.361 67.6497 69.4079 67.6872 69.4391 67.7465ZM68.6766 67.8153C68.5891 67.834 68.5391 67.9028 68.5704 67.9622C68.6079 68.0309 68.5891 68.0403 68.5297 67.9997C68.336 67.884 68.4016 67.7465 68.6391 67.7559C68.8047 67.7653 68.8141 67.7747 68.6766 67.8153ZM70.7579 67.9434C70.7579 67.9903 70.7172 68.0403 70.6579 68.0403C70.611 68.0403 70.561 67.9903 70.561 67.9434C70.561 67.884 70.611 67.8434 70.6579 67.8434C70.7172 67.8434 70.7579 67.884 70.7579 67.9434ZM68.9204 68.0122C68.8641 68.0309 68.8235 68.0872 68.8422 68.1278C68.8704 68.1684 68.8329 68.2059 68.7547 68.2059C68.6485 68.2059 68.6391 68.1684 68.7141 68.0684C68.7766 67.9997 68.8829 67.9434 68.9391 67.9497C69.0079 67.9497 68.9985 67.9715 68.9204 68.0122ZM69.6329 68.0403C69.6047 68.0872 69.5172 68.1059 69.4391 68.0684C69.2329 67.9997 69.2516 67.9434 69.4954 67.9434C69.6047 67.9434 69.6735 67.9809 69.6329 68.0403ZM70.0454 67.9997C70.0141 68.0309 69.9266 68.0403 69.8579 68.0122C69.7797 67.9809 69.8079 67.9497 69.9172 67.9497C70.0266 67.9434 70.0829 67.9715 70.0454 67.9997ZM70.4954 68.1872C70.4954 68.2434 70.4266 68.2934 70.3391 68.3122C70.2204 68.3434 70.1891 68.3028 70.2297 68.1872C70.2985 68.0184 70.4735 68.0184 70.4954 68.1872ZM70.7079 68.7247C70.7391 68.7809 70.6985 68.7934 70.6204 68.7622C70.4454 68.6934 70.4141 68.6247 70.5516 68.6247C70.611 68.6247 70.6797 68.6653 70.7079 68.7247ZM76.3235 69.4059C76.3235 69.4559 76.2266 69.5059 76.1079 69.4934C75.8954 69.4934 75.8954 69.484 76.0797 69.4059C76.186 69.3559 76.2829 69.3184 76.3047 69.3184C76.3141 69.309 76.3235 69.3497 76.3235 69.4059ZM70.4641 69.7872C70.4641 69.8247 70.4141 69.9059 70.3454 69.9747C70.2579 70.0621 70.1891 70.0497 70.0547 69.9247C69.8016 69.6997 69.8391 69.6309 70.1704 69.6809C70.3391 69.6997 70.4641 69.7497 70.4641 69.7872ZM76.0985 69.6622C76.0704 69.6903 75.9829 69.6997 75.9141 69.6684C75.836 69.6403 75.8641 69.6122 75.9704 69.6122C76.0797 69.6028 76.1391 69.6309 76.0985 69.6622ZM75.7391 70.0434C75.7391 70.159 75.5516 70.159 75.5141 70.0434C75.4735 69.9528 75.5016 69.9247 75.6016 69.9622C75.6704 69.9934 75.7391 70.0309 75.7391 70.0434ZM74.8016 71.1247C74.8297 71.2028 74.8204 71.2434 74.761 71.2122C74.7016 71.184 74.6641 71.1153 74.6641 71.0559C74.6641 70.9184 74.7329 70.9497 74.8016 71.1247ZM69.6735 73.3247C69.8985 73.6059 70.0735 73.8809 70.0735 73.9372C70.0735 73.9965 70.0266 73.9684 69.9641 73.8684C69.9172 73.7809 69.7704 73.7028 69.6516 73.7028C69.4954 73.7028 69.4672 73.6747 69.5766 73.6153C69.6829 73.5465 69.6516 73.459 69.4391 73.1747C69.0266 72.6372 69.2235 72.7559 69.6735 73.3247ZM70.3172 74.0934C70.3454 74.1434 70.3266 74.1934 70.2766 74.1934C70.2204 74.1934 70.1704 74.1434 70.1704 74.0934C70.1704 74.0372 70.1891 73.9965 70.211 73.9965C70.2391 73.9965 70.2891 74.0372 70.3172 74.0934Z" fill="black"/>
<path d="M78.4705 10.481C78.4142 10.6185 78.3736 10.756 78.3736 10.7747C78.3736 10.8029 78.2861 11.0185 78.1798 11.2622C77.9955 11.6529 77.7767 12.1622 77.7392 12.2779C77.6423 12.581 77.5548 12.6685 77.4955 12.5716C77.458 12.5029 77.358 12.6591 77.2705 12.931C77.183 13.1966 77.0861 13.4997 77.0455 13.606C76.9955 13.7622 77.008 13.7716 77.1048 13.6435C77.2017 13.5185 77.2142 13.5279 77.1642 13.6747C77.133 13.7716 77.1048 13.881 77.1048 13.8997C77.1048 13.9279 77.0642 13.9279 77.0173 13.8997C76.9017 13.8216 76.5267 14.731 76.4705 15.2279C76.4517 15.4622 76.3923 15.7747 76.3423 15.9404C76.3048 16.0966 76.283 16.3216 76.3048 16.4185C76.333 16.5435 76.3923 16.456 76.5205 16.1247C76.7236 15.5185 77.008 14.9154 77.1517 14.7185C77.2798 14.5529 77.6892 13.3716 77.8861 12.6185C77.9548 12.3466 78.0517 12.0747 78.1111 12.006C78.158 11.9466 78.1705 11.8872 78.1392 11.8872C78.1017 11.8872 78.1298 11.7904 78.1986 11.6622C78.2673 11.5435 78.308 11.3872 78.2955 11.3216C78.2767 11.2622 78.308 11.2029 78.3455 11.2029C78.4236 11.2029 78.5986 10.8529 78.7142 10.4435C78.8048 10.1372 78.5892 10.1685 78.4705 10.481Z" fill="black"/>
<path d="M62.4359 15.5778L61.8796 15.7341V18.6934C61.8796 20.9997 61.9015 21.6528 61.9953 21.6528C62.2609 21.6528 63.3734 20.8997 63.589 20.5778C63.8234 20.2466 63.8234 20.1997 63.8234 17.9434C63.8234 16.2809 63.7953 15.6059 63.7078 15.5184C63.5578 15.3747 63.139 15.3934 62.4359 15.5778Z" fill="black"/>
<path d="M61.3328 15.5998C61.364 15.6466 61.4109 15.6966 61.439 15.6966C61.4609 15.6966 61.4797 15.6466 61.4797 15.5998C61.4797 15.5404 61.4328 15.4998 61.3703 15.4998C61.3234 15.4998 61.3047 15.5404 61.3328 15.5998Z" fill="black"/>
<path d="M61.3828 17.2778C61.3828 17.5622 61.4109 17.631 61.5266 17.5903C61.7047 17.5216 61.7047 17.5435 61.5266 17.1997L61.3828 16.9185V17.2778Z" fill="black"/>
<path d="M75.6985 17.209C75.6704 17.2965 75.6391 17.4747 75.6391 17.5903C75.6391 17.7059 75.5829 17.8622 75.5235 17.9215C75.4329 18.0122 75.4329 18.0684 75.5016 18.1184C75.5704 18.1684 75.561 18.2622 75.4735 18.4309L75.3454 18.6747V18.4309C75.3454 18.2622 75.3172 18.2247 75.2579 18.3122C75.2204 18.3809 75.2016 18.5465 75.2297 18.684C75.2579 18.8403 75.2204 18.9372 75.1141 18.9778C74.9579 19.0372 74.6235 19.9528 74.7141 20.0903C74.7422 20.1372 74.7204 20.2747 74.6735 20.4028C74.5954 20.5872 74.5766 20.5997 74.5766 20.4434C74.5641 20.334 74.536 20.2747 74.5079 20.3059C74.4579 20.3622 74.0204 21.5653 73.3547 23.509C72.9454 24.6809 72.5329 25.7622 72.0766 26.8684C71.8797 27.3372 71.7454 27.7465 71.7735 27.7747C71.8204 27.834 72.4579 27.3372 72.4766 27.2309C72.4766 27.1997 72.6422 26.8184 72.8454 26.3872C73.0516 25.959 73.3454 25.2372 73.5016 24.7778C73.6579 24.3184 73.9329 23.509 74.1266 22.9715C74.311 22.434 74.4672 21.8778 74.4672 21.7215C74.4672 21.5747 74.5079 21.4559 74.5579 21.4559C74.6454 21.4559 74.9266 20.7153 75.2579 19.6028C75.3766 19.1997 75.5235 18.7997 75.5891 18.7247C75.7766 18.509 76.0516 17.609 76.011 17.3465C75.9704 17.0809 75.786 16.9934 75.6985 17.209Z" fill="black"/>
<path d="M61.3828 18.206C61.3828 18.606 61.4891 18.731 61.5391 18.3903C61.5484 18.3247 61.5891 18.1685 61.6172 18.0591C61.6547 17.931 61.6266 17.8435 61.5266 17.806C61.4109 17.7653 61.3828 17.8341 61.3828 18.206Z" fill="black"/>
<path d="M61.4515 18.7934C61.4109 18.8497 61.3922 19.3684 61.4015 19.9528C61.4109 20.5403 61.4328 20.9122 61.4609 20.7747C61.4797 20.6372 61.5484 20.4716 61.5953 20.4028C61.6547 20.3341 61.6547 20.2872 61.6078 20.2872C61.5578 20.2872 61.539 20.0809 61.5765 19.8059C61.6078 19.5341 61.6078 19.3372 61.5578 19.3684C61.4515 19.4372 61.4609 19.3372 61.5672 19.1247C61.664 18.9497 61.5484 18.6372 61.4515 18.7934Z" fill="black"/>
<path d="M54.264 17.6496C54.1547 17.7058 54.1828 17.7558 54.3515 17.8433C54.4953 17.9214 54.5953 17.9308 54.664 17.8621C54.8015 17.7277 54.4297 17.5433 54.264 17.6496Z" fill="black"/>
<path d="M56.4985 18.7715C56.4985 18.9559 56.5485 19.1122 56.5954 19.1122C56.6548 19.1122 56.6954 18.9559 56.6954 18.7715C56.6954 18.5872 56.6548 18.4309 56.5954 18.4309C56.5485 18.4309 56.4985 18.5872 56.4985 18.7715Z" fill="black"/>
<path d="M55.3579 25.0215C55.3579 25.3434 55.3767 25.4622 55.3954 25.2872C55.4142 25.109 55.4142 24.8465 55.3954 24.6997C55.3767 24.5528 55.3579 24.6997 55.3579 25.0215Z" fill="black"/>
<path d="M55.339 25.8122C55.339 25.9184 55.3671 25.9497 55.3953 25.8716C55.4265 25.8028 55.414 25.7153 55.3859 25.6872C55.3578 25.6466 55.3265 25.7059 55.339 25.8122Z" fill="black"/>
<path d="M51.7516 28.1059C51.8016 28.7715 51.9016 29.1247 51.9204 28.7247C51.9766 27.6778 51.9672 27.4153 51.8329 27.4153C51.7235 27.4153 51.7047 27.5497 51.7516 28.1059Z" fill="black"/>
<path d="M56.0391 33.6653C56.0391 33.909 56.0578 34.0059 56.0797 33.8809C56.0984 33.7621 56.0984 33.5684 56.0797 33.4403C56.0578 33.3246 56.0391 33.4184 56.0391 33.6653Z" fill="black"/>
<path d="M42.1922 21.6809L41.6078 21.8778L41.5891 28.7434C41.5578 35.5778 41.5578 35.6184 41.3516 35.8247C41.2453 35.9309 41.1766 36.0872 41.2078 36.1559C41.2266 36.2247 41.1672 36.3591 41.0578 36.4559C40.7578 36.7309 40.8453 36.8278 41.1578 36.5653C41.3141 36.4372 41.7922 36.1934 42.2203 36.0184C42.6516 35.8434 43.1016 35.5872 43.2266 35.4622L43.4641 35.2059L43.4922 28.5684C43.5109 22.7059 43.5016 21.8872 43.3641 21.6934C43.1891 21.4184 43.0016 21.4184 42.1922 21.6809ZM41.5203 36.1747C41.4109 36.2809 41.3516 36.1372 41.4328 35.9497C41.4984 35.7747 41.5078 35.7747 41.5391 35.9403C41.5578 36.0372 41.5484 36.1434 41.5203 36.1747Z" fill="black"/>
<path d="M46.7453 28.3529C46.7453 28.4591 46.7734 28.4872 46.8015 28.4122C46.8328 28.3435 46.8203 28.256 46.7921 28.2247C46.764 28.1872 46.7328 28.2435 46.7453 28.3529Z" fill="black"/>
<path d="M8.50173 31.0278C8.47048 31.0747 8.47048 31.1247 8.52048 31.1372C8.55798 31.1372 8.67673 31.1559 8.76423 31.1747C8.85173 31.1934 8.95173 31.1434 8.97985 31.0684C9.03923 30.9122 8.5986 30.8715 8.50173 31.0278Z" fill="black"/>
<path d="M5.42673 31.9247C5.22047 32.0122 5.2111 32.0435 5.35798 32.0747C5.46422 32.1029 5.51422 32.181 5.48298 32.2591C5.3861 32.5029 5.51422 32.406 5.67048 32.1029C5.8361 31.7904 5.80797 31.7622 5.42673 31.9247Z" fill="black"/>
<path d="M13.7766 40.8121C13.6485 41.2621 13.6203 41.7496 13.7141 41.8183C13.7766 41.8496 13.8235 41.8277 13.8235 41.7683C13.8235 41.7121 13.8516 41.6808 13.9016 41.6996C13.9391 41.7308 13.9703 41.4871 13.9797 41.1746C13.9797 40.5777 13.9016 40.4308 13.7766 40.8121Z" fill="black"/>
<path d="M8.77651 40.8621C8.64839 40.8809 8.55151 40.9496 8.55151 40.9996C8.55151 41.0559 8.60776 41.0684 8.67651 41.0277C8.76401 40.9684 8.75464 40.9996 8.66714 41.1059C8.57026 41.2309 8.55776 41.3215 8.64839 41.4684C8.70776 41.584 8.77651 41.6715 8.80464 41.6715C8.83276 41.6715 8.83276 41.634 8.80464 41.5934C8.75464 41.5152 9.02651 41.3402 9.31089 41.2621C9.40151 41.2434 9.40151 41.184 9.28276 41.009C9.19526 40.8902 9.09526 40.8027 9.05776 40.8027C9.02026 40.8121 8.89214 40.8434 8.77651 40.8621Z" fill="black"/>
<path d="M8.36406 50.5997C8.35468 50.8528 8.38281 50.9591 8.45156 50.8903C8.51093 50.8309 8.51093 50.6872 8.46406 50.5122C8.37343 50.2184 8.37343 50.2184 8.36406 50.5997Z" fill="black"/>
<path d="M55.4265 39.8247V40.9122L55.6984 40.8434C56.214 40.7153 56.3515 40.4809 56.3421 39.6903C56.3421 39.2903 56.3046 38.9184 56.264 38.859C56.2265 38.7934 56.0203 38.7434 55.8078 38.7434H55.4265V39.8247Z" fill="black"/>
<path d="M45.8641 41.5434C45.6985 41.6809 45.6391 41.8684 45.5891 42.4246C45.5516 42.9309 45.5704 43.1746 45.6579 43.284C45.8079 43.459 46.2454 43.4809 46.461 43.3027C46.6454 43.1559 46.7516 42.4152 46.6641 41.8184C46.6172 41.4184 46.5891 41.3809 46.3422 41.3809C46.1954 41.3809 45.9829 41.4559 45.8641 41.5434Z" fill="black"/>
<path d="M38.5517 43.4496C38.3642 43.6371 38.4142 43.9965 38.6267 44.1121C38.7954 44.1996 38.8423 44.1808 38.9392 43.9683C39.1173 43.5746 38.8142 43.1871 38.5517 43.4496Z" fill="black"/>
<path d="M38.336 45.3747C38.2673 45.5778 38.2454 45.8028 38.2766 45.8622C38.4016 46.0685 39.1173 45.9591 39.1173 45.7341C39.1173 45.6685 38.9704 45.4716 38.7954 45.306L38.4641 44.981L38.336 45.3747Z" fill="black"/>
<path d="M50.4455 45.8716C50.358 45.931 50.3455 45.9685 50.4142 45.9685C50.4736 45.9685 50.5611 45.9185 50.5892 45.8716C50.6705 45.756 50.6299 45.756 50.4455 45.8716Z" fill="black"/>
<path d="M28.7953 46.5933C28.539 46.8183 28.5203 46.8871 28.5203 47.5621C28.5203 48.4121 28.6484 48.6371 29.0953 48.5871C29.4953 48.5464 29.6453 48.2339 29.6453 47.4058C29.6453 46.3589 29.3703 46.0964 28.7953 46.5933Z" fill="black"/>
<path d="M29.008 60.8122C28.9798 60.8716 29.0205 60.881 29.0955 60.8528C29.2736 60.7841 29.3017 60.7153 29.1642 60.7153C29.108 60.7153 29.0392 60.756 29.008 60.8122Z" fill="black"/>
<path d="M38.9984 61.7621C39.0672 61.7902 39.1547 61.7809 39.1828 61.7496C39.2234 61.7215 39.164 61.6934 39.0578 61.6996C38.9515 61.6996 38.9203 61.7309 38.9984 61.7621Z" fill="black"/>
<path d="M70.8078 62.081C70.7765 62.131 70.814 62.181 70.9015 62.181C70.9921 62.181 71.0296 62.131 71.0015 62.081C70.9703 62.0248 70.9234 61.9841 70.9015 61.9841C70.8828 61.9841 70.8359 62.0248 70.8078 62.081Z" fill="black"/>
<path d="M71.1484 62.3183C71.1484 62.337 71.2266 62.4152 71.3234 62.4808C71.4703 62.6089 71.4797 62.5995 71.3516 62.4433C71.2266 62.287 71.1484 62.237 71.1484 62.3183Z" fill="black"/>
<path d="M70.2485 64.4934C70.3079 64.5122 70.4266 64.5122 70.4954 64.4934C70.5516 64.4653 70.5016 64.4465 70.3673 64.4465C70.2298 64.4465 70.1829 64.4653 70.2485 64.4934Z" fill="black"/>
<path d="M71.3422 64.6403C71.3422 64.7309 71.2829 64.8247 71.2266 64.8465C71.1266 64.8872 71.1266 64.9059 71.2266 64.9059C71.3641 64.9153 71.4985 64.6497 71.4016 64.5528C71.3704 64.5122 71.3422 64.5622 71.3422 64.6403Z" fill="black"/>
<path d="M72.8079 64.6215C72.8079 64.7497 72.9141 64.7497 73.1016 64.6215C73.2172 64.5434 73.2079 64.5247 73.0329 64.5247C72.9047 64.5247 72.8079 64.5622 72.8079 64.6215Z" fill="black"/>
<path d="M69.7798 64.8248C69.7798 64.8748 69.8298 64.8935 69.8767 64.8654C69.936 64.8373 69.9767 64.7873 69.9767 64.7591C69.9767 64.7373 69.936 64.7185 69.8767 64.7185C69.8298 64.7185 69.7798 64.7685 69.7798 64.8248Z" fill="black"/>
<path d="M70.4142 65.0122C70.4455 65.0622 70.4955 65.109 70.5236 65.109C70.5424 65.109 70.5611 65.0622 70.5611 65.0122C70.5611 64.9528 70.5142 64.9153 70.4549 64.9153C70.4049 64.9153 70.3861 64.9528 70.4142 65.0122Z" fill="black"/>
<path d="M70.4641 65.4028C70.4641 65.4497 70.5329 65.4715 70.611 65.4434C70.6891 65.4028 70.7579 65.3622 70.7579 65.3434C70.7579 65.3247 70.6891 65.3059 70.611 65.3059C70.5329 65.3059 70.4641 65.3434 70.4641 65.4028Z" fill="black"/>
<path d="M67.2204 65.4716C67.2892 65.4997 67.3767 65.4904 67.4079 65.4622C67.4454 65.431 67.3892 65.4029 67.2798 65.4122C67.1735 65.4122 67.1454 65.4435 67.2204 65.4716Z" fill="black"/>
<path d="M71.0578 65.5778C70.8953 65.8809 70.9328 65.9684 71.1078 65.7153C71.1953 65.5872 71.2453 65.4622 71.214 65.4309C71.1859 65.4122 71.1203 65.4715 71.0578 65.5778Z" fill="black"/>
<path d="M69.2922 65.9871C69.2047 66.0465 69.1954 66.0871 69.2641 66.0871C69.3204 66.0871 69.4079 66.0371 69.4391 65.9871C69.5173 65.8715 69.4766 65.8715 69.2922 65.9871Z" fill="black"/>
<path d="M69.6829 65.9871C69.5954 66.0465 69.5861 66.0871 69.6517 66.0871C69.7142 66.0871 69.8017 66.0371 69.8298 65.9871C69.9079 65.8715 69.8704 65.8715 69.6829 65.9871Z" fill="black"/>
<path d="M70.2205 65.9871C70.183 66.0465 70.1892 66.0871 70.2392 66.0746C70.4142 66.0465 70.5611 66.0965 70.5611 66.184C70.5611 66.2309 70.4142 66.2809 70.2392 66.2809C70.0642 66.2809 69.8705 66.3309 69.8017 66.3996C69.6642 66.5371 69.6455 66.7684 69.7705 66.7684C69.8205 66.7684 69.8486 66.6934 69.8392 66.5934C69.8298 66.4684 69.9173 66.4184 70.1705 66.3996C70.533 66.359 70.758 66.2309 70.758 66.0559C70.758 65.9996 70.7267 65.9871 70.6986 66.0184C70.658 66.0465 70.5517 66.0371 70.4548 65.9871C70.3392 65.9184 70.258 65.9184 70.2205 65.9871Z" fill="black"/>
<path d="M68.1797 66.2309C68.0703 66.3122 68.0234 66.3809 68.0828 66.3809C68.1297 66.3809 68.2578 66.3122 68.3547 66.2309C68.4641 66.1559 68.5109 66.0872 68.4516 66.0872C68.4016 66.0872 68.2766 66.1559 68.1797 66.2309Z" fill="black"/>
<path d="M69.3392 66.281C69.3111 66.331 69.3204 66.381 69.3798 66.381C69.4298 66.381 69.5079 66.331 69.5361 66.281C69.5642 66.2247 69.5579 66.1841 69.4954 66.1841C69.4486 66.1841 69.3704 66.2247 69.3392 66.281Z" fill="black"/>
<path d="M68.7141 66.4966C68.7141 66.6528 68.7547 66.7684 68.8141 66.7684C68.8829 66.7684 68.9891 66.8497 69.0579 66.9372C69.1829 67.1028 69.1829 67.1028 69.1954 66.9372C69.1954 66.8278 69.1079 66.7309 69.0079 66.6997C68.9016 66.6715 68.7954 66.5559 68.7766 66.4372C68.7454 66.2716 68.7266 66.2934 68.7141 66.4966Z" fill="black"/>
<path d="M68.9985 66.3685C68.9985 66.4279 69.0392 66.4966 69.0954 66.5248C69.1548 66.556 69.1642 66.5154 69.136 66.4373C69.0673 66.2623 68.9985 66.231 68.9985 66.3685Z" fill="black"/>
<path d="M71.8609 66.5153C72.0453 66.6997 72.2515 66.7216 72.2015 66.5435C72.1734 66.4872 72.0578 66.4091 71.9297 66.3997C71.7234 66.3591 71.714 66.381 71.8609 66.5153Z" fill="black"/>
<path d="M70.2484 66.9246C70.3765 67.0121 70.5015 67.0527 70.5421 67.0121C70.6203 66.9371 70.3765 66.7683 70.1703 66.7683C70.0828 66.7683 70.114 66.8277 70.2484 66.9246Z" fill="black"/>
<path d="M68.7078 67.0621C68.7078 67.1214 68.7765 67.1621 68.8515 67.1621C68.9328 67.1621 68.9984 67.1402 68.9984 67.1214C68.9984 67.1027 68.9328 67.0621 68.8515 67.0246C68.7765 66.9933 68.7078 67.0121 68.7078 67.0621Z" fill="black"/>
<path d="M72.1141 67.7873C72.1047 67.7873 72.086 67.8935 72.0766 68.0123C72.0454 68.2935 72.1329 68.2935 72.3891 67.9998L72.5922 67.7654H72.3579C72.2329 67.7654 72.1141 67.7748 72.1141 67.7873ZM72.3204 67.9435C72.3204 67.9904 72.2797 68.0404 72.2204 68.0404C72.1735 68.0404 72.1235 67.9904 72.1235 67.9435C72.1235 67.8841 72.1735 67.8435 72.2204 67.8435C72.2797 67.8435 72.3204 67.8841 72.3204 67.9435Z" fill="black"/>
<path d="M71.4892 68.6247C71.4611 68.6747 71.4705 68.7247 71.5267 68.7247C71.5767 68.7247 71.6549 68.6747 71.683 68.6247C71.7142 68.5685 71.7049 68.5278 71.6455 68.5278C71.5955 68.5278 71.5205 68.5685 71.4892 68.6247Z" fill="black"/>
<path d="M70.6891 69.3779C70.5422 69.4247 70.5235 69.6029 70.6516 69.6029C70.6985 69.6029 70.7579 69.5341 70.7954 69.456C70.8266 69.3779 70.836 69.3091 70.8266 69.3185C70.8141 69.3185 70.7454 69.3497 70.6891 69.3779Z" fill="black"/>
<path d="M72.5142 66.1559C72.5142 66.2028 72.5642 66.2997 72.6142 66.3809C72.6892 66.4965 72.711 66.4872 72.711 66.2997C72.711 66.184 72.6704 66.0872 72.6142 66.0872C72.5642 66.0872 72.5142 66.1153 72.5142 66.1559Z" fill="black"/>
<path d="M62.7704 2.19028C62.4454 2.46215 61.0891 4.4934 61.0891 4.69965C61.0891 4.93403 61.5579 5.4434 61.7641 5.4434C62.036 5.4434 62.6829 4.9059 63.4016 4.07465C64.2235 3.12778 64.2922 2.83403 63.8641 2.32465C63.5704 1.97465 63.0891 1.9184 62.7704 2.19028Z" fill="black"/>
<path d="M8.25791 10.356C8.12979 10.4216 7.95479 10.5872 7.87666 10.7247C7.75791 10.9403 7.75791 11.0091 7.87666 11.2528C8.06103 11.6341 8.76416 12.1622 9.19541 12.2372C9.48916 12.2872 9.58604 12.2591 9.82979 12.0247C9.98604 11.8778 10.1142 11.6935 10.1142 11.6247C10.1142 11.4685 9.49541 10.7841 9.14541 10.531C8.77666 10.2653 8.52979 10.2185 8.25791 10.356Z" fill="black"/>
<path d="M82.1047 13.137C81.9766 13.4183 81.9485 13.6152 82.0641 13.5089C82.1047 13.4683 82.1329 13.3995 82.1454 13.3714C82.1454 13.3308 82.1829 13.2245 82.2329 13.1277C82.3485 12.8433 82.2422 12.8558 82.1047 13.137Z" fill="black"/>
<path d="M81.6455 14.2122C81.4892 14.5122 81.3142 14.7966 81.2548 14.8372C81.208 14.8747 81.1861 14.9153 81.2267 14.9153C81.3048 14.9153 80.6205 16.4872 80.5142 16.5747C80.483 16.6059 80.3955 16.7997 80.3173 17.0122C80.2486 17.2309 80.1517 17.4434 80.1142 17.4934C80.0736 17.5497 80.033 17.6778 80.033 17.7872C80.033 17.9028 80.4736 17.0247 81.0111 15.8528C81.9673 13.7434 82.2142 13.1184 81.6455 14.2122Z" fill="black"/>
<path d="M4.76099 16.9841C4.49537 17.4748 4.19537 17.7466 3.89224 17.7466C3.24537 17.7466 2.81724 18.2623 3.17037 18.6154C3.26724 18.7123 3.52974 18.831 3.75474 18.8685C4.16412 18.9373 4.33912 19.0935 4.66412 19.6904C4.89849 20.1185 5.15162 20.081 5.39537 19.5623C5.56099 19.2216 5.67974 19.1123 5.93287 19.0654C6.52037 18.9373 6.97662 18.7029 7.03599 18.5185C7.13287 18.2154 6.85162 17.8748 6.43287 17.806C5.79537 17.6873 5.73912 17.6498 5.43287 17.1623C5.27037 16.8873 5.08287 16.6716 5.03287 16.6716C4.97662 16.6716 4.84849 16.8091 4.76099 16.9841Z" fill="black"/>
<path d="M79.5579 18.9371C79.5454 19.0933 79.5954 19.2121 79.6454 19.2121C79.761 19.2121 79.761 19.134 79.6454 18.8683C79.5641 18.6933 79.5579 18.7027 79.5579 18.9371Z" fill="black"/>
<path d="M0.220264 37.034C0.523389 37.4621 1.09839 37.9809 1.75151 38.4402C2.40776 38.8871 2.49526 38.9184 2.49526 38.6559C2.49526 38.459 2.23276 38.2434 1.59526 37.9215C1.40151 37.8246 1.15776 37.6684 1.05776 37.5809C0.964013 37.4934 0.679639 37.2684 0.445264 37.0809L0.00463867 36.7402L0.220264 37.034Z" fill="black"/>
<path d="M72.1235 39.1341C71.0391 39.1997 70.8953 39.231 70.7391 39.4247C70.5016 39.7091 70.5141 40.0216 70.7672 40.3435L70.9703 40.606L73.1016 40.5779C75.2016 40.5497 75.2391 40.5497 75.4828 40.3154C75.8141 40.0029 75.8266 39.5435 75.5141 39.2497C75.3078 39.056 75.1891 39.0372 74.311 39.056C73.7828 39.056 72.7985 39.0935 72.1235 39.1341Z" fill="black"/>
<path d="M70.5703 43.106C70.4734 43.3122 70.2984 43.7935 70.1828 44.1716C69.9078 45.1091 69.7141 45.2653 68.6859 45.4216C67.7109 45.5685 67.6328 45.606 67.6328 45.9685C67.6328 46.3216 67.9828 46.6122 68.5391 46.6997C69.1359 46.7997 69.7422 47.0935 69.9078 47.356C69.9859 47.4747 70.1516 47.9997 70.2703 48.5091C70.4953 49.456 70.6984 49.9747 70.8453 49.9747C71.0891 49.9747 71.2766 49.5341 71.3828 48.6841C71.5672 47.2778 71.7828 47.0247 73.0016 46.781C73.9891 46.5841 74.4766 46.2435 74.2828 45.8997C74.1547 45.6466 74.0766 45.6278 73.0141 45.4435C71.9203 45.2466 71.7047 45.031 71.4391 43.8591C71.2953 43.2341 71.0578 42.7466 70.8953 42.7466C70.8266 42.7466 70.6797 42.9122 70.5703 43.106Z" fill="black"/>
<path d="M64.3329 47.0435C64.2516 47.2091 64.1641 47.3185 64.1266 47.2966C64.0391 47.2373 63.7266 47.7466 63.6766 48.0185C63.6579 48.1279 63.5016 48.3998 63.3454 48.6248C63.1797 48.8591 62.9047 49.231 62.7391 49.4654C62.5735 49.6904 62.4579 49.9435 62.4766 50.0216C62.4954 50.0998 62.8266 49.6904 63.2172 49.1123C63.9016 48.0998 64.0391 47.8341 63.8047 47.981C63.736 48.0185 63.7266 48.0123 63.7641 47.931C63.8047 47.8748 63.8704 47.8435 63.9204 47.8748C63.9704 47.9029 64.1454 47.6685 64.311 47.3373C64.4766 47.0123 64.5766 46.7498 64.536 46.7498C64.4891 46.7498 64.4016 46.8873 64.3329 47.0435Z" fill="black"/>
<path d="M17.6828 59.5528C17.5453 59.8184 17.1828 60.3059 16.8891 60.6278C16.5953 60.9497 16.3828 61.2528 16.4109 61.3122C16.4516 61.359 16.6453 61.5153 16.8516 61.6434C17.0578 61.7684 17.3297 62.0528 17.4453 62.2778C17.5828 62.5215 17.7297 62.6684 17.8266 62.6497C18.0016 62.609 18.5984 61.7622 19.0078 60.9309C19.2922 60.3622 19.3109 60.2872 19.2047 59.934C19.0672 59.4747 18.5984 59.0559 18.2078 59.0559C17.9734 59.0559 17.8953 59.1247 17.6828 59.5528Z" fill="black"/>
<path d="M51.9766 61.7685C51.5203 62.0529 51.5485 62.2591 52.1641 63.2935C52.7703 64.2997 53.2078 64.8185 53.4641 64.8185C53.5516 64.8185 53.7641 64.731 53.9391 64.6216C54.4016 64.3372 54.3516 64.0841 53.6078 62.9904C52.5922 61.4966 52.5141 61.4372 51.9766 61.7685Z" fill="black"/>
<path d="M24.3517 62.5434C24.1454 62.7746 23.1204 64.309 22.9329 64.6621C22.7985 64.9152 22.8079 64.9621 22.9829 65.1996C23.111 65.3746 23.2767 65.4621 23.511 65.4809C23.8142 65.5121 23.9017 65.4496 24.2923 65.0309C24.7892 64.4652 25.3454 63.4809 25.3454 63.1465C25.3392 62.8746 25.1829 62.6496 24.8892 62.4934C24.6048 62.3371 24.5267 62.3465 24.3517 62.5434Z" fill="black"/>
<path d="M37.5329 64.887C37.1048 65.3433 36.5767 66.2933 36.5767 66.6245C36.5767 67.1027 37.5048 68.2339 37.886 68.2339C38.3267 68.2339 39.4079 67.0058 39.4079 66.5152C39.4079 66.3995 39.1829 65.9683 38.911 65.5589C38.2392 64.5433 37.9735 64.4183 37.5329 64.887Z" fill="black"/>
<path d="M80.4328 70.6277C80.4453 70.7339 80.4828 70.9308 80.5234 71.0683C80.6015 71.2996 80.6015 71.2996 80.6109 71.0183C80.6109 70.8527 80.5703 70.6558 80.5234 70.5777C80.4453 70.4621 80.4265 70.4714 80.4328 70.6277Z" fill="black"/>
<path d="M67.1923 71.6434C67.0954 71.809 67.3079 71.8497 67.436 71.6997C67.5329 71.584 67.5329 71.5559 67.4079 71.5559C67.3204 71.5559 67.2329 71.5934 67.1923 71.6434Z" fill="black"/>
<path d="M80.483 71.8966C80.3955 72.1498 80.4142 72.2091 80.533 72.0123C80.5892 71.9185 80.6205 71.8091 80.5892 71.7904C80.5705 71.7623 80.5236 71.8091 80.483 71.8966Z" fill="black"/>
</svg>
